<svg width="426" height="326" viewBox="0 0 426 326" fill="none" xmlns="http://www.w3.org/2000/svg">
<path fill-rule="evenodd" clip-rule="evenodd" d="M2.77775 10.3471C0.888672 14.0531 0.888672 18.9045 0.888672 28.6075V297.392C0.888672 307.095 0.888672 311.947 2.77775 315.653C4.43944 318.913 7.0909 321.563 10.3521 323.224C14.0597 325.112 18.9131 325.112 28.62 325.112H397.38C407.087 325.112 411.94 325.112 415.648 323.224C418.909 321.563 421.561 318.913 423.222 315.653C425.111 311.947 425.111 307.095 425.111 297.392V28.6075C425.111 18.9045 425.111 14.0531 423.222 10.3471C421.561 7.08716 418.909 4.43677 415.648 2.77576C411.94 0.887451 407.087 0.887451 397.38 0.887451H28.62C18.9131 0.887451 14.0597 0.887451 10.3521 2.77576C7.0909 4.43677 4.43944 7.08716 2.77775 10.3471Z" fill="url(#paint0_linear_2_22)"/>
<defs>
<linearGradient id="paint0_linear_2_22" x1="213" y1="0.887451" x2="213" y2="325.112" gradientUnits="userSpaceOnUse">
<stop stop-color="#1F1F1F"/>
<stop offset="1" stop-color="#0F0F0F"/>
</linearGradient>
</defs>
</svg>
