<svg width="428" height="328" viewBox="0 0 428 328" fill="none" xmlns="http://www.w3.org/2000/svg">
<path fill-rule="evenodd" clip-rule="evenodd" d="M2.62967 10.56C0.650635 14.4425 0.650635 19.525 0.650635 29.6899V298.31C0.650635 308.475 0.650635 313.557 2.62967 317.44C4.37048 320.855 7.14821 323.632 10.5647 325.372C14.4488 327.35 19.5334 327.35 29.7025 327.35H398.297C408.467 327.35 413.551 327.35 417.435 325.372C420.852 323.632 423.629 320.855 425.37 317.44C427.349 313.557 427.349 308.475 427.349 298.31V29.6899C427.349 19.525 427.349 14.4425 425.37 10.56C423.629 7.14483 420.852 4.36824 417.435 2.62813C413.551 0.649902 408.467 0.649902 398.297 0.649902H29.7025C19.5334 0.649902 14.4488 0.649902 10.5647 2.62813C7.14821 4.36824 4.37048 7.14483 2.62967 10.56ZM15.311 17.8281C14.6813 19.0634 14.6813 20.6806 14.6813 23.9149V304.085C14.6813 307.319 14.6813 308.936 15.311 310.172C15.8649 311.258 16.7488 312.142 17.8358 312.695C19.0717 313.325 20.6895 313.325 23.9251 313.325H404.075C407.31 313.325 408.928 313.325 410.164 312.695C411.251 312.142 412.135 311.258 412.689 310.172C413.319 308.936 413.319 307.319 413.319 304.085V23.9149C413.319 20.6806 413.319 19.0634 412.689 17.8281C412.135 16.7415 411.251 15.858 410.164 15.3043C408.928 14.6749 407.31 14.6749 404.075 14.6749H23.9251C20.6895 14.6749 19.0717 14.6749 17.8358 15.3043C16.7488 15.858 15.8649 16.7415 15.311 17.8281Z" fill="url(#paint0_linear_2_20)"/>
<defs>
<linearGradient id="paint0_linear_2_20" x1="0.650642" y1="10.8593" x2="71.6078" y2="386.052" gradientUnits="userSpaceOnUse">
<stop stop-color="#BBBBBB"/>
<stop offset="1" stop-color="#828483"/>
</linearGradient>
</defs>
</svg>
