<svg width="428" height="328" viewBox="0 0 428 328" fill="none" xmlns="http://www.w3.org/2000/svg">
<path fill-rule="evenodd" clip-rule="evenodd" d="M1.30931 17.8026C1.06362 20.8085 1.0633 24.6006 1.0633 29.6899V298.31C1.0633 303.399 1.06362 307.191 1.30931 310.197C1.55461 313.198 2.04243 315.379 2.99736 317.253C4.69861 320.59 7.41321 323.304 10.7521 325.004C12.6263 325.959 14.8081 326.446 17.8103 326.692C20.8174 326.937 24.6111 326.937 29.7025 326.937H398.297C403.389 326.937 407.183 326.937 410.19 326.692C413.192 326.446 415.374 325.959 417.248 325.004C420.587 323.304 423.301 320.59 425.003 317.253C425.958 315.379 426.445 313.198 426.691 310.197C426.936 307.191 426.937 303.399 426.937 298.31V29.6899C426.937 24.6006 426.936 20.8085 426.691 17.8026C426.445 14.8016 425.958 12.6207 425.003 10.7472C423.301 7.40972 420.587 4.69623 417.248 2.99567C415.374 2.04113 413.192 1.55351 410.19 1.30831C407.183 1.06272 403.389 1.0624 398.297 1.0624H29.7025C24.6111 1.0624 20.8174 1.06272 17.8103 1.30831C14.8081 1.55351 12.6263 2.04113 10.7521 2.99567C7.41321 4.69623 4.69861 7.40972 2.99736 10.7472C2.04243 12.6207 1.55461 14.8016 1.30931 17.8026ZM14.3488 20.0883C14.4296 19.0998 14.5939 18.3264 14.9433 17.6408C15.5368 16.4766 16.4838 15.53 17.6485 14.9368C18.3343 14.5875 19.108 14.4232 20.097 14.3425C21.0771 14.2624 22.3043 14.2624 23.906 14.2624H404.094C405.696 14.2624 406.923 14.2624 407.903 14.3425C408.892 14.4232 409.666 14.5875 410.351 14.9368C411.516 15.53 412.463 16.4766 413.057 17.6408C413.406 18.3264 413.57 19.0998 413.651 20.0883C413.731 21.068 413.731 22.2946 413.731 23.8954V304.104C413.731 305.705 413.731 306.932 413.651 307.912C413.57 308.9 413.406 309.673 413.057 310.359C412.463 311.523 411.516 312.47 410.351 313.063C409.666 313.412 408.892 313.577 407.903 313.657C406.923 313.737 405.696 313.737 404.094 313.737H23.9056C22.3041 313.737 21.0771 313.737 20.097 313.657C19.108 313.577 18.3343 313.412 17.6485 313.063C16.4838 312.47 15.5368 311.523 14.9433 310.359C14.5939 309.673 14.4296 308.9 14.3488 307.912C14.2687 306.932 14.2687 305.705 14.2687 304.104V23.8958C14.2687 22.2948 14.2687 21.0681 14.3488 20.0883ZM0.650635 29.6899C0.650635 19.525 0.650635 14.4425 2.62967 10.56C4.37048 7.14483 7.14821 4.36824 10.5647 2.62813C14.4488 0.649902 19.5334 0.649902 29.7025 0.649902H398.297C408.467 0.649902 413.551 0.649902 417.435 2.62813C420.852 4.36824 423.629 7.14483 425.37 10.56C427.349 14.4425 427.349 19.525 427.349 29.6899V298.31C427.349 308.475 427.349 313.557 425.37 317.44C423.629 320.855 420.852 323.632 417.435 325.372C413.551 327.35 408.467 327.35 398.297 327.35H29.7025C19.5334 327.35 14.4488 327.35 10.5647 325.372C7.14821 323.632 4.37048 320.855 2.62967 317.44C0.650635 313.557 0.650635 308.475 0.650635 298.31V29.6899ZM14.6813 23.9149C14.6813 20.6806 14.6813 19.0634 15.311 17.8281C15.8649 16.7415 16.7488 15.858 17.8358 15.3043C19.0717 14.6749 20.6895 14.6749 23.9251 14.6749H404.075C407.31 14.6749 408.928 14.6749 410.164 15.3043C411.251 15.858 412.135 16.7415 412.689 17.8281C413.319 19.0634 413.319 20.6806 413.319 23.9149V304.085C413.319 307.319 413.319 308.936 412.689 310.172C412.135 311.258 411.251 312.142 410.164 312.695C408.928 313.325 407.31 313.325 404.075 313.325H23.9251C20.6895 313.325 19.0717 313.325 17.8358 312.695C16.7488 312.142 15.8649 311.258 15.311 310.172C14.6813 308.936 14.6813 307.319 14.6813 304.085V23.9149Z" fill="#1B1B1B" fill-opacity="0.2"/>
</svg>
