<svg width="456" height="72" viewBox="0 0 456 72" fill="none" xmlns="http://www.w3.org/2000/svg">
<g clip-path="url(#clip0_1_324)">
<path d="M9.71596 0.0186768H210.284C215.646 0.0186768 220 4.37272 220 9.73464V62.2653C220 67.6273 215.646 71.9813 210.284 71.9813H9.71596C4.35404 71.9813 0 67.6273 0 62.2653V9.73464C0 4.37272 4.35404 0.0186768 9.71596 0.0186768Z" fill="#231F20"/>
<mask id="mask0_1_324" style="mask-type:luminance" maskUnits="userSpaceOnUse" x="16" y="14" width="43" height="49">
<path d="M47.693 31.7065L37.7754 25.9817C37.7754 25.9817 19.6739 15.5401 18.6257 14.9353C17.5775 14.3306 16.489 14.6935 16.489 15.9835V60.9753C16.489 61.9429 17.255 62.346 18.1823 61.8219C19.1095 61.2978 37.7754 50.5337 37.7754 50.5337L47.693 44.8089C47.693 44.8089 56.1188 39.9308 57.2477 39.2857C58.3765 38.6407 58.2556 37.7537 57.3283 37.2296C56.4011 36.7055 47.7333 31.6661 47.7333 31.6661L47.693 31.7065Z" fill="white"/>
</mask>
<g mask="url(#mask0_1_324)">
<path d="M16.489 13.8871V38.2375V62.6282L41.0813 38.2375L16.489 13.8871Z" fill="url(#paint0_linear_1_324)"/>
<path d="M47.693 31.7064L37.7754 25.9817L16.489 13.6855V13.8871L41.0813 38.2375L47.693 31.7064Z" fill="url(#paint1_linear_1_324)"/>
<path d="M16.489 62.6282V62.7895L37.7754 50.5337L47.693 44.7686L41.0813 38.2375L16.489 62.6282Z" fill="url(#paint2_linear_1_324)"/>
<path d="M47.693 31.7064L41.0813 38.2375L47.693 44.7685L59.0216 38.2375L47.693 31.7064Z" fill="url(#paint3_linear_1_324)"/>
</g>
<path d="M171.219 47.7519C170.291 47.7519 169.445 47.5907 168.679 47.2278C167.913 46.9053 167.268 46.3812 166.744 45.6555H166.582C166.703 46.5021 166.744 47.2681 166.744 47.9938V53.8395H164.607V33.3191H166.34L166.623 35.2542H166.744C167.308 34.4882 167.953 33.9238 168.679 33.561C169.404 33.1981 170.251 33.0369 171.219 33.0369C173.113 33.0369 174.565 33.6819 175.573 34.972C176.581 36.2621 177.105 38.0763 177.105 40.3742C177.105 42.6722 176.581 44.5267 175.532 45.8168C174.484 47.1069 173.033 47.7519 171.219 47.7519ZM170.896 34.8914C169.445 34.8914 168.397 35.2945 167.752 36.1008C167.106 36.9071 166.784 38.1972 166.744 39.9308V40.4146C166.744 42.39 167.066 43.8413 167.752 44.688C168.397 45.5346 169.485 45.978 170.936 45.978C172.146 45.978 173.113 45.4943 173.799 44.4864C174.484 43.4785 174.847 42.1481 174.847 40.3742C174.847 38.6004 174.484 37.27 173.799 36.3024C173.113 35.3751 172.146 34.8914 170.856 34.8914H170.896Z" fill="#F9F9F9"/>
<path d="M182.104 47.51H179.967V27.3927H182.104V47.51Z" fill="#F9F9F9"/>
<path d="M194.44 47.51L193.997 45.4942H193.876C193.15 46.3812 192.465 46.9859 191.779 47.3084C191.094 47.6309 190.207 47.7922 189.159 47.7922C187.748 47.7922 186.659 47.4294 185.853 46.7037C185.047 45.978 184.644 44.9701 184.644 43.5994C184.644 40.737 186.942 39.2454 191.497 39.0841L193.916 39.0035V38.1165C193.916 36.9877 193.674 36.1814 193.19 35.6573C192.707 35.1332 191.941 34.851 190.892 34.851C189.723 34.851 188.393 35.2139 186.901 35.9395L186.256 34.2866C186.942 33.9238 187.708 33.6012 188.554 33.3997C189.401 33.1981 190.207 33.0771 191.054 33.0771C192.747 33.0771 193.997 33.44 194.803 34.206C195.609 34.972 196.012 36.1411 196.012 37.8343V47.51H194.44ZM189.602 45.978C190.933 45.978 191.981 45.6152 192.747 44.8895C193.513 44.1638 193.876 43.1156 193.876 41.8255V40.5355L191.739 40.6161C190.046 40.6967 188.796 40.9386 188.03 41.4224C187.264 41.9062 186.901 42.6319 186.901 43.5994C186.901 44.3654 187.143 44.9701 187.587 45.3733C188.07 45.7764 188.715 45.978 189.562 45.978H189.602Z" fill="#F9F9F9"/>
<path d="M197.262 33.319H199.56L202.664 41.3821C203.35 43.2366 203.753 44.567 203.914 45.3733H204.035C204.156 44.9298 204.398 44.1638 204.721 43.1156C205.083 42.0674 206.253 38.7616 208.228 33.2787H210.526L204.438 49.4048C203.834 51.0174 203.148 52.1462 202.342 52.7913C201.536 53.4766 200.528 53.7992 199.359 53.7992C198.714 53.7992 198.069 53.7185 197.424 53.5976V51.864C197.907 51.985 198.431 52.0253 198.996 52.0253C200.487 52.0253 201.536 51.1787 202.14 49.5257L202.947 47.51L197.222 33.2384L197.262 33.319Z" fill="#F9F9F9"/>
<path d="M131.468 34.6494C132.153 35.2138 133.564 36.383 133.564 38.6406C133.564 40.8983 132.314 41.8658 131.065 42.8334C130.661 43.2366 130.218 43.6397 130.218 44.2848C130.218 44.9298 130.661 45.2926 130.984 45.5748L132.032 46.4215C133.322 47.51 134.532 48.5179 134.532 50.5739C134.532 53.3557 131.831 56.1777 126.751 56.1777C122.437 56.1777 120.381 54.1217 120.381 51.9446C120.381 50.8964 120.905 49.3645 122.679 48.3163C124.534 47.1874 126.993 47.0262 128.323 46.9456C127.92 46.4215 127.436 45.857 127.436 44.9298C127.436 44.446 127.598 44.1235 127.718 43.7607C127.396 43.7607 127.073 43.801 126.751 43.801C123.606 43.801 121.832 41.4627 121.832 39.1647C121.832 37.794 122.437 36.3023 123.727 35.1735C125.421 33.7625 127.436 33.5609 129.049 33.5609H135.136L133.242 34.6091H131.387L131.468 34.6494ZM129.371 47.8325C129.129 47.8325 128.968 47.8325 128.686 47.8325C128.404 47.8325 126.832 47.8728 125.582 48.3163C124.937 48.5582 123.042 49.2435 123.042 51.3802C123.042 53.5169 125.098 55.0086 128.243 55.0086C131.105 55.0086 132.597 53.6379 132.597 51.8237C132.597 50.2917 131.629 49.5257 129.371 47.9131V47.8325ZM130.218 42.1884C130.903 41.503 130.944 40.5758 130.944 40.0113C130.944 37.8746 129.654 34.5688 127.194 34.5688C126.428 34.5688 125.582 34.9719 125.138 35.5364C124.655 36.1411 124.493 36.9474 124.493 37.7134C124.493 39.6888 125.662 42.9947 128.202 42.9947C128.928 42.9947 129.734 42.6318 130.218 42.1481V42.1884Z" fill="#F9F9F9"/>
<path d="M112.802 47.3486C108.085 47.3486 105.585 43.68 105.585 40.3741C105.585 36.5038 108.77 33.198 113.245 33.198C117.72 33.198 120.3 36.5845 120.3 40.1725C120.3 43.7606 117.599 47.3486 112.802 47.3486ZM116.511 44.97C117.237 44.0025 117.398 42.8333 117.398 41.6642C117.398 39.0437 116.148 34.0849 112.479 34.0849C111.512 34.0849 110.544 34.4881 109.819 35.0928C108.649 36.141 108.448 37.4311 108.448 38.7212C108.448 41.6642 109.899 46.4617 113.487 46.4617C114.656 46.4617 115.826 45.8973 116.511 44.97Z" fill="#F9F9F9"/>
<path d="M96.7565 47.3486C92.0396 47.3486 89.54 43.68 89.54 40.3741C89.54 36.5038 92.7249 33.198 97.1999 33.198C101.675 33.198 104.255 36.5845 104.255 40.1725C104.255 43.7606 101.554 47.3486 96.7565 47.3486ZM100.465 44.97C101.191 44.0025 101.352 42.8333 101.352 41.6642C101.352 39.0437 100.103 34.0849 96.4339 34.0849C95.4664 34.0849 94.4988 34.4881 93.7731 35.0928C92.604 36.141 92.4024 37.4311 92.4024 38.7212C92.4024 41.6642 93.8538 46.4617 97.4418 46.4617C98.611 46.4617 99.7801 45.8973 100.465 44.97Z" fill="#F9F9F9"/>
<path d="M87.2824 46.8648L83.009 47.8324C81.2754 48.1146 79.7435 48.3565 78.0905 48.3565C69.8662 48.3565 66.762 42.3092 66.762 37.5923C66.762 31.8273 71.1966 26.4653 78.7759 26.4653C80.3885 26.4653 81.9205 26.7072 83.3315 27.1104C85.5488 27.7151 86.597 28.5214 87.2421 28.9649L84.7829 31.3032L83.7347 31.545L84.4603 30.3356C83.4525 29.368 81.598 27.5538 78.0905 27.5538C73.3737 27.5538 69.8662 31.1419 69.8662 36.3426C69.8662 41.9464 73.8978 47.1873 80.3885 47.1873C82.2833 47.1873 83.2912 46.7842 84.1781 46.4617V41.6642L79.7031 41.9061L82.0817 40.616H88.3709L87.6049 41.3416C87.4033 41.5029 87.363 41.5835 87.3227 41.8254C87.3227 42.1076 87.2824 42.9543 87.2824 43.2365V46.8648Z" fill="#F9F9F9"/>
<path d="M140.861 46.0183C139.894 45.9376 139.692 45.7361 139.692 44.6072V27.7555C139.692 27.7555 139.692 27.6345 139.692 27.5539C139.813 26.5057 140.095 26.3444 141.022 25.78H136.749L134.532 26.8685H136.789V45.2523C136.789 45.857 136.668 45.9376 135.983 46.8246H141.264L142.353 46.1795C141.829 46.0989 141.345 46.0989 140.821 46.0183H140.861Z" fill="#F9F9F9"/>
<path d="M152.956 46.3005C152.633 46.4617 152.311 46.7036 151.988 46.8246C151.021 47.268 150.013 47.389 149.126 47.389C148.199 47.389 146.707 47.3083 145.215 46.2198C143.119 44.7282 142.192 42.1883 142.192 39.971C142.192 35.375 145.901 33.1577 148.965 33.1577C150.013 33.1577 151.142 33.4399 152.029 34.0043C153.52 34.9719 153.883 36.262 154.085 36.9473L147.15 39.7694L144.893 39.9307C145.618 43.68 148.158 45.857 150.98 45.857C152.472 45.857 153.601 45.3329 154.568 44.8088L152.996 46.3005H152.956ZM150.174 37.5118C150.738 37.3102 151.021 37.1086 151.021 36.7055C151.021 35.5363 149.69 34.1656 148.078 34.1656C146.909 34.1656 144.691 35.0928 144.691 38.2777C144.691 38.7615 144.732 39.3259 144.772 39.85L150.134 37.5118H150.174Z" fill="#F9F9F9"/>
<path d="M155.818 33.3593V35.2944H155.576V33.3593H154.931V33.1577H156.463V33.3593H155.818Z" fill="#F9F9F9"/>
<path d="M158.479 35.3347V33.3593L157.874 35.3347H157.673L157.068 33.3593V35.3347H156.866V33.198H157.229L157.794 34.9316L158.318 33.198H158.681V35.3347H158.479Z" fill="#F9F9F9"/>
<path d="M72.6882 20.66H71.1966C71.1966 20.4585 71.0756 19.8941 70.7934 18.9265H68.6567C68.3745 19.8537 68.2132 20.4181 68.2132 20.66H66.8425C66.8425 20.66 67.2054 19.5715 67.931 17.717C68.6567 15.8625 69.0196 14.8547 69.0196 14.6531H70.7531C70.7531 14.6531 71.0756 15.8222 71.7207 17.6767C72.3657 19.4909 72.6882 20.4988 72.6882 20.66ZM70.5515 18.0396C70.0274 16.4673 69.7452 15.5803 69.7452 15.4594H69.6646C69.6646 15.4594 69.3824 16.4269 68.8583 18.0396H70.5515Z" fill="#F9F9F9"/>
<path d="M78.6548 20.66H77.526C77.526 20.66 77.0825 19.8537 76.2359 18.6442C75.349 17.3541 74.8249 16.5075 74.7039 16.0237H74.6233C74.7039 16.7091 74.7442 17.3138 74.7442 17.8379C74.7442 18.6039 74.7442 19.5312 74.8249 20.6197H73.696C73.7364 19.6521 73.7767 18.6039 73.7767 17.4751C73.7767 16.3463 73.7767 15.3787 73.696 14.6127H75.0668C75.0668 14.6127 75.4296 15.419 76.1956 16.5478C77.0019 17.7573 77.4857 18.5636 77.6066 19.0071H77.6872C77.6066 18.3217 77.5663 17.717 77.5663 17.1526C77.5663 16.3059 77.5663 15.4593 77.4857 14.5724H78.6548C78.6145 15.3384 78.5742 16.3059 78.5742 17.4348C78.5742 18.5636 78.5742 19.6521 78.6548 20.5794V20.66Z" fill="#F9F9F9"/>
<path d="M85.3473 17.4751C85.3473 18.362 85.0651 19.128 84.5007 19.7731C83.9363 20.4181 83.1703 20.7406 82.1624 20.7406C81.7189 20.7406 81.0739 20.7406 80.2676 20.7003C80.2676 19.7731 80.3079 18.7249 80.3079 17.5557C80.3079 16.3866 80.3079 15.4593 80.2676 14.6934H81.0739C81.0739 14.6934 81.3964 14.6934 81.6786 14.6934C81.9205 14.6934 82.1221 14.6934 82.2027 14.6934C83.3315 14.6934 84.1378 14.9756 84.6216 15.54C85.1054 16.1044 85.3876 16.7494 85.3876 17.5557L85.3473 17.4751ZM84.0975 17.6767C84.0975 17.072 83.9363 16.5882 83.5734 16.185C83.2106 15.7819 82.6865 15.5803 82.0011 15.5803C81.8802 15.5803 81.6786 15.5803 81.4367 15.6206C81.4367 16.2253 81.477 16.8704 81.477 17.5557C81.477 18.2814 81.477 19.0071 81.5173 19.7328C81.7189 19.7328 81.9205 19.7731 82.1221 19.7731C82.7671 19.7731 83.2912 19.5715 83.5734 19.1683C83.8959 18.7652 84.0572 18.2411 84.0572 17.6767H84.0975Z" fill="#F9F9F9"/>
<path d="M91.5153 20.6601H90.1446C89.7818 19.5716 89.4996 18.8862 89.3383 18.6443C89.1367 18.4024 88.8545 18.2412 88.4111 18.2412C88.2498 18.2412 88.0482 18.2412 87.887 18.2412C87.887 19.0475 87.887 19.8135 87.9273 20.6198H86.6372C86.6372 19.6925 86.6775 18.6443 86.6775 17.4752C86.6775 16.306 86.6775 15.3788 86.6372 14.6128H87.4435C87.4435 14.6128 87.7257 14.6128 88.0079 14.6128C88.2901 14.6128 88.5723 14.6128 88.8142 14.6128C90.2253 14.6128 90.9509 15.0966 90.9509 16.0641C90.9509 16.8301 90.5478 17.3542 89.7415 17.6767V17.7574C90.064 17.838 90.3059 18.0799 90.5478 18.4831C90.7897 18.8862 91.1122 19.6119 91.475 20.6601H91.5153ZM89.7818 16.427C89.7818 15.8222 89.3786 15.4997 88.6127 15.4997C88.3304 15.4997 88.0482 15.4997 87.8467 15.5804C87.8467 16.0641 87.887 16.6689 87.887 17.4349C88.0482 17.4349 88.2095 17.4349 88.3304 17.4349C89.298 17.4349 89.7818 17.1123 89.7818 16.427Z" fill="#F9F9F9"/>
<path d="M98.1272 17.5557C98.1272 18.483 97.845 19.2893 97.2403 19.894C96.6759 20.4988 95.9502 20.8213 95.1036 20.8213C94.257 20.8213 93.6119 20.5391 93.0475 19.9747C92.4831 19.4102 92.2412 18.6846 92.2412 17.7976C92.2412 16.8704 92.5234 16.0641 93.1282 15.4594C93.6926 14.8546 94.4182 14.5321 95.2649 14.5321C96.1115 14.5321 96.7565 14.8143 97.3209 15.3787C97.8853 15.9431 98.1272 16.6688 98.1272 17.5557ZM96.8371 17.6767C96.8371 17.0316 96.6759 16.5075 96.3534 16.1044C96.0308 15.7012 95.6277 15.4997 95.1439 15.4997C94.7004 15.4997 94.2973 15.7012 94.0151 16.1044C93.6926 16.5075 93.5313 17.0316 93.5313 17.6364C93.5313 18.2411 93.6926 18.8055 94.0151 19.2087C94.3376 19.6118 94.7408 19.8134 95.2245 19.8134C95.668 19.8134 96.0712 19.6118 96.3534 19.2087C96.6759 18.8055 96.8371 18.2814 96.8371 17.6767Z" fill="#F9F9F9"/>
<path d="M100.748 20.66H99.4575C99.4575 19.6925 99.4978 18.6443 99.4978 17.5155C99.4978 16.3866 99.4978 15.4191 99.4575 14.6531H100.748C100.748 15.4191 100.707 16.3866 100.707 17.5155C100.707 18.6443 100.707 19.7328 100.748 20.66Z" fill="#F9F9F9"/>
<path d="M107.44 17.4751C107.44 18.362 107.158 19.128 106.593 19.7731C106.029 20.4181 105.263 20.7406 104.255 20.7406C103.811 20.7406 103.166 20.7406 102.36 20.7003C102.36 19.7731 102.4 18.7249 102.4 17.5557C102.4 16.3866 102.4 15.4593 102.36 14.6934H103.166C103.166 14.6934 103.489 14.6934 103.771 14.6934C104.013 14.6934 104.215 14.6934 104.295 14.6934C105.424 14.6934 106.23 14.9756 106.714 15.54C107.198 16.1044 107.48 16.7494 107.48 17.5557L107.44 17.4751ZM106.19 17.6767C106.19 17.072 106.029 16.5882 105.666 16.185C105.303 15.7819 104.779 15.5803 104.094 15.5803C103.973 15.5803 103.771 15.5803 103.529 15.6206C103.529 16.2253 103.57 16.8704 103.57 17.5557C103.57 18.2814 103.57 19.0071 103.61 19.7328C103.811 19.7328 104.013 19.7731 104.215 19.7731C104.86 19.7731 105.384 19.5715 105.706 19.1683C106.029 18.7652 106.19 18.2411 106.19 17.6767Z" fill="#F9F9F9"/>
<path d="M116.309 20.66H114.818C114.818 20.4585 114.697 19.8941 114.415 18.9265H112.278C111.996 19.8537 111.834 20.4181 111.834 20.66H110.464C110.464 20.66 110.826 19.5715 111.552 17.717C112.278 15.8625 112.641 14.8547 112.641 14.6531H114.374C114.374 14.6531 114.697 15.8222 115.342 17.6767C115.987 19.4909 116.309 20.4988 116.309 20.66ZM114.173 18.0396C113.649 16.4673 113.366 15.5803 113.366 15.4594H113.286C113.286 15.4594 113.003 16.4269 112.479 18.0396H114.173Z" fill="#F9F9F9"/>
<path d="M121.711 16.2254C121.711 16.951 121.429 17.5155 120.905 17.838C120.341 18.2008 119.696 18.3621 118.889 18.3621C118.728 18.3621 118.648 18.3621 118.567 18.3621C118.567 18.9265 118.567 19.6925 118.607 20.66H117.317C117.317 19.7731 117.357 18.7249 117.357 17.5155C117.357 16.4269 117.357 15.4594 117.317 14.6531H118.123C118.123 14.6531 118.446 14.6531 118.768 14.6531C119.091 14.6531 119.373 14.6531 119.615 14.6531C120.22 14.6531 120.704 14.774 121.107 15.0562C121.51 15.3384 121.711 15.7416 121.711 16.2657V16.2254ZM120.502 16.4673C120.502 15.8222 120.059 15.4594 119.172 15.4594C118.97 15.4594 118.728 15.4594 118.486 15.54C118.486 16.1044 118.527 16.7898 118.527 17.5155C118.607 17.5155 118.688 17.5155 118.809 17.5155C119.938 17.5155 120.502 17.1526 120.502 16.4673Z" fill="#F9F9F9"/>
<path d="M127.275 16.2254C127.275 16.951 126.993 17.5155 126.469 17.838C125.904 18.2008 125.259 18.3621 124.453 18.3621C124.292 18.3621 124.211 18.3621 124.13 18.3621C124.13 18.9265 124.13 19.6925 124.171 20.66H122.881C122.881 19.7731 122.921 18.7249 122.921 17.5155C122.921 16.4269 122.921 15.4594 122.881 14.6531H123.687C123.687 14.6531 124.009 14.6531 124.332 14.6531C124.654 14.6531 124.937 14.6531 125.179 14.6531C125.783 14.6531 126.267 14.774 126.67 15.0562C127.073 15.3384 127.275 15.7416 127.275 16.2657V16.2254ZM126.066 16.4673C126.066 15.8222 125.622 15.4594 124.735 15.4594C124.534 15.4594 124.292 15.4594 124.05 15.54C124.05 16.1044 124.09 16.7898 124.09 17.5155C124.171 17.5155 124.251 17.5155 124.372 17.5155C125.501 17.5155 126.066 17.1526 126.066 16.4673Z" fill="#F9F9F9"/>
<path d="M136.306 17.5557C136.306 18.483 136.023 19.2893 135.419 19.894C134.854 20.4988 134.129 20.8213 133.282 20.8213C132.435 20.8213 131.79 20.5391 131.226 19.9747C130.662 19.4102 130.42 18.6846 130.42 17.7976C130.42 16.8704 130.702 16.0641 131.307 15.4594C131.911 14.8546 132.597 14.5321 133.443 14.5321C134.29 14.5321 134.935 14.8143 135.499 15.3787C136.064 15.9431 136.306 16.6688 136.306 17.5557ZM135.016 17.6767C135.016 17.0316 134.854 16.5075 134.532 16.1044C134.209 15.7012 133.806 15.4997 133.322 15.4997C132.879 15.4997 132.476 15.7012 132.194 16.1044C131.871 16.5075 131.71 17.0316 131.71 17.6364C131.71 18.2411 131.871 18.8055 132.194 19.2087C132.516 19.6118 132.919 19.8134 133.403 19.8134C133.846 19.8134 134.25 19.6118 134.532 19.2087C134.854 18.8055 135.016 18.2814 135.016 17.6767Z" fill="#F9F9F9"/>
<path d="M142.595 20.66H141.466C141.466 20.66 141.063 19.8537 140.176 18.6442C139.289 17.3541 138.765 16.5075 138.644 16.0237H138.563C138.644 16.7091 138.684 17.3138 138.684 17.8379C138.684 18.6039 138.684 19.5312 138.765 20.6197H137.636C137.676 19.6521 137.717 18.6039 137.717 17.4751C137.717 16.3463 137.717 15.3787 137.636 14.6127H139.007C139.007 14.6127 139.37 15.419 140.136 16.5478C140.942 17.7573 141.426 18.5636 141.547 19.0071H141.627C141.547 18.3217 141.506 17.717 141.506 17.1526C141.506 16.3059 141.506 15.4593 141.426 14.5724H142.595C142.554 15.3384 142.514 16.3059 142.514 17.4348C142.514 18.5636 142.514 19.6521 142.595 20.5794V20.66Z" fill="#F9F9F9"/>
</g>
<g clip-path="url(#clip1_1_324)">
<path d="M245.716 0.0186768H446.284C451.646 0.0186768 456 4.37272 456 9.73464V62.2653C456 67.6273 451.646 71.9813 446.284 71.9813H245.716C240.354 71.9813 236 67.6273 236 62.2653V9.73464C236 4.37272 240.354 0.0186768 245.716 0.0186768Z" fill="#231F20"/>
<path d="M274.017 12.3148H256.077C253.94 12.3148 252.207 14.0484 252.207 16.1851V55.9359C252.207 58.0726 253.94 59.8464 256.077 59.8464H274.017C276.154 59.8464 277.928 58.1129 277.928 55.9359V16.2254C277.928 14.0887 276.194 12.3551 274.017 12.3551V12.3148ZM265.067 56.9437C263.656 56.9437 262.487 55.7746 262.487 54.3636C262.487 52.9525 263.656 51.7834 265.067 51.7834C266.478 51.7834 267.648 52.9525 267.648 54.3636C267.648 55.7746 266.478 56.9437 265.067 56.9437ZM274.864 50.4933H255.23V21.2245H274.824V50.4933H274.864Z" fill="white"/>
<path d="M292.562 19.4104L291.474 22.7162H290.063L293.61 12.2343H295.263L298.851 22.7162H297.4L296.271 19.4104H292.562ZM295.989 18.3622L294.941 15.3385C294.739 14.6532 294.578 14.0484 294.417 13.4437H294.376C294.256 14.0484 294.054 14.6935 293.852 15.3385L292.844 18.3622H295.989Z" fill="white"/>
<path d="M300.263 15.1772L301.754 19.4103C301.996 20.0957 302.198 20.7407 302.359 21.3455H302.399C302.561 20.7407 302.802 20.0957 303.044 19.4103L304.496 15.1772H305.947L303.004 22.7162H301.714L298.852 15.1772H300.303H300.263Z" fill="white"/>
<path d="M312.236 20.902C312.236 21.5471 312.236 22.1921 312.357 22.7162H311.148L311.027 21.7486H310.986C310.583 22.3534 309.777 22.8775 308.688 22.8775C307.156 22.8775 306.39 21.7889 306.39 20.7004C306.39 18.8863 308.003 17.8784 310.906 17.9187V17.7574C310.906 17.1527 310.744 15.9836 309.212 16.0239C308.487 16.0239 307.761 16.2254 307.237 16.5883L306.914 15.661C307.519 15.2579 308.446 15.016 309.414 15.016C311.752 15.016 312.276 16.5883 312.276 18.0799V20.902H312.236ZM310.906 18.8459C309.414 18.8459 307.721 19.0878 307.721 20.5392C307.721 21.4261 308.326 21.8293 309.011 21.8293C310.019 21.8293 310.664 21.2245 310.865 20.5795C310.906 20.4585 310.946 20.2973 310.946 20.136V18.8459H310.906Z" fill="white"/>
<path d="M314.977 13.7662C314.453 13.7662 314.131 13.363 314.131 12.8792C314.131 12.3955 314.494 11.9923 315.018 11.9923C315.542 11.9923 315.905 12.3955 315.905 12.8792C315.905 13.363 315.582 13.7662 315.018 13.7662H314.977ZM314.332 22.6758V15.1369H315.703V22.6758H314.332Z" fill="white"/>
<path d="M317.921 11.6698H319.291V22.7162H317.921V11.6698Z" fill="white"/>
<path d="M326.79 20.902C326.79 21.5471 326.79 22.1921 326.911 22.7162H325.661L325.54 21.7486H325.5C325.097 22.3534 324.29 22.8775 323.202 22.8775C321.67 22.8775 320.904 21.7889 320.904 20.7004C320.904 18.8863 322.516 17.8784 325.419 17.9187V17.7574C325.419 17.1527 325.258 15.9836 323.726 16.0239C323 16.0239 322.275 16.2254 321.75 16.5883L321.428 15.661C322.033 15.2579 322.96 15.016 323.927 15.016C326.266 15.016 326.79 16.5883 326.79 18.0799V20.902ZM325.459 18.8459C323.968 18.8459 322.275 19.0878 322.275 20.5392C322.275 21.4261 322.879 21.8293 323.565 21.8293C324.572 21.8293 325.218 21.2245 325.419 20.5795C325.459 20.4585 325.5 20.2973 325.5 20.136V18.8459H325.459Z" fill="white"/>
<path d="M328.886 11.6698H330.257V16.3867C330.741 15.5401 331.628 15.016 332.837 15.016C334.692 15.016 336.022 16.5883 336.022 18.8459C336.022 21.547 334.329 22.8774 332.636 22.8774C331.547 22.8774 330.7 22.4743 330.096 21.4664L330.015 22.7162H328.846C328.886 22.1921 328.886 21.4261 328.886 20.781V11.6698ZM330.257 19.6925C330.257 19.6925 330.257 20.015 330.297 20.1763C330.579 21.1439 331.386 21.7889 332.353 21.7889C333.805 21.7889 334.651 20.6198 334.651 18.8862C334.651 17.3542 333.885 16.0642 332.394 16.0642C331.466 16.0642 330.579 16.7092 330.338 17.7574C330.297 17.9187 330.257 18.1202 330.257 18.3218V19.6925Z" fill="white"/>
<path d="M337.675 11.6698H339.046V22.7162H337.675V11.6698Z" fill="white"/>
<path d="M341.989 19.1685C341.989 21.023 343.198 21.7889 344.569 21.7889C345.536 21.7889 346.141 21.6277 346.665 21.4261L346.907 22.3937C346.423 22.5952 345.577 22.8775 344.367 22.8775C342.069 22.8775 340.658 21.3455 340.658 19.0878C340.658 16.8302 342.029 15.016 344.206 15.016C346.665 15.016 347.31 17.193 347.31 18.5637C347.31 18.8459 347.31 19.0475 347.27 19.2088H341.989V19.1685ZM345.98 18.1606C345.98 17.314 345.617 15.9432 344.085 15.9432C342.674 15.9432 342.11 17.2333 341.989 18.1606H345.98Z" fill="white"/>
<path d="M355.252 22.8775C353.237 22.8775 351.624 21.3858 351.624 19.0072C351.624 16.4673 353.277 15.016 355.373 15.016C357.47 15.016 359.002 16.5883 359.002 18.8862C359.002 21.668 357.067 22.9178 355.252 22.9178V22.8775ZM355.293 21.8696C356.583 21.8696 357.591 20.6198 357.591 18.9266C357.591 17.6365 356.946 16.0642 355.333 16.0642C353.72 16.0642 353.035 17.5558 353.035 19.0072C353.035 20.6601 353.962 21.9099 355.293 21.9099V21.8696Z" fill="white"/>
<path d="M360.655 17.193C360.655 16.3867 360.655 15.7819 360.574 15.1369H361.783L361.864 16.3463C362.227 15.661 363.114 14.9353 364.364 14.9353C365.412 14.9353 367.024 15.54 367.024 18.1605V22.6758H365.654V18.3218C365.654 17.1123 365.21 16.0641 363.92 16.0641C363.033 16.0641 362.348 16.7092 362.066 17.4752C361.985 17.6364 361.985 17.8783 361.985 18.1202V22.6758H360.614V17.193H360.655Z" fill="white"/>
<path d="M374.08 13.363V15.1772H376.055V16.2254H374.08V20.2973C374.08 21.2245 374.362 21.7486 375.088 21.7486C375.45 21.7486 375.692 21.7486 375.894 21.668V22.7162C375.692 22.7968 375.289 22.9177 374.725 22.9177C374.08 22.9177 373.556 22.7162 373.233 22.3533C372.87 21.9502 372.709 21.2648 372.709 20.3779V16.2657H371.54V15.2175H372.709V13.8468L374.039 13.4437L374.08 13.363Z" fill="white"/>
<path d="M377.506 11.6698H378.877V16.3867C379.079 15.9835 379.442 15.6207 379.845 15.4191C380.248 15.1772 380.732 15.016 381.256 15.016C382.264 15.016 383.876 15.6207 383.876 18.2412V22.7162H382.505V18.4024C382.505 17.193 382.062 16.1448 380.772 16.1448C379.885 16.1448 379.2 16.7495 378.917 17.5155C378.837 17.7171 378.837 17.9187 378.837 18.1605V22.7162H377.466V11.6698H377.506Z" fill="white"/>
<path d="M386.819 19.1685C386.819 21.023 388.029 21.7889 389.399 21.7889C390.367 21.7889 390.972 21.6277 391.496 21.4261L391.738 22.3937C391.254 22.5952 390.407 22.8775 389.198 22.8775C386.9 22.8775 385.489 21.3455 385.489 19.0878C385.489 16.8302 386.859 15.016 389.036 15.016C391.496 15.016 392.141 17.193 392.141 18.5637C392.141 18.8459 392.141 19.0475 392.1 19.2088H386.819V19.1685ZM390.81 18.1606C390.81 17.314 390.448 15.9432 388.916 15.9432C387.505 15.9432 386.94 17.2333 386.819 18.1606H390.81Z" fill="white"/>
<path d="M397.624 13.7662C397.1 13.7662 396.777 13.363 396.777 12.8792C396.777 12.3955 397.14 11.9923 397.664 11.9923C398.188 11.9923 398.551 12.3955 398.551 12.8792C398.551 13.363 398.228 13.7662 397.664 13.7662H397.624ZM396.979 22.6758V15.1369H398.349V22.6758H396.979Z" fill="white"/>
<path d="M400.607 12.3551C401.252 12.2342 402.099 12.1536 403.187 12.1536C404.518 12.1536 405.525 12.4761 406.13 13.0405C406.695 13.5243 407.057 14.2903 407.057 15.2175C407.057 16.1448 406.775 16.9108 406.251 17.4752C405.525 18.2412 404.356 18.6443 403.026 18.6443C402.623 18.6443 402.26 18.6443 401.937 18.5637V22.7565H400.567V12.3551H400.607ZM401.978 17.3945C402.26 17.4752 402.663 17.5155 403.107 17.5155C404.759 17.5155 405.727 16.7092 405.727 15.2981C405.727 13.8871 404.759 13.2421 403.268 13.2421C402.663 13.2421 402.22 13.3227 401.978 13.363V17.4349V17.3945Z" fill="white"/>
<path d="M408.67 11.6698H410.041V16.3867C410.242 15.9835 410.605 15.6207 411.008 15.4191C411.411 15.1772 411.895 15.016 412.419 15.016C413.427 15.016 415.04 15.6207 415.04 18.2412V22.7162H413.669V18.4024C413.669 17.193 413.226 16.1448 411.935 16.1448C411.049 16.1448 410.363 16.7495 410.081 17.5155C410 17.7171 410 17.9187 410 18.1605V22.7162H408.63V11.6698H408.67Z" fill="white"/>
<path d="M420.281 22.8775C418.265 22.8775 416.652 21.3858 416.652 19.0072C416.652 16.4673 418.305 15.016 420.402 15.016C422.498 15.016 424.03 16.5883 424.03 18.8862C424.03 21.668 422.095 22.9178 420.281 22.9178V22.8775ZM420.321 21.8696C421.611 21.8696 422.619 20.6198 422.619 18.9266C422.619 17.6365 421.974 16.0642 420.361 16.0642C418.749 16.0642 418.063 17.5558 418.063 19.0072C418.063 20.6601 418.991 21.9099 420.321 21.9099V21.8696Z" fill="white"/>
<path d="M425.683 17.193C425.683 16.3867 425.683 15.7819 425.603 15.1369H426.812L426.893 16.3463C427.255 15.661 428.142 14.9353 429.392 14.9353C430.44 14.9353 432.053 15.54 432.053 18.1605V22.6758H430.682V18.3218C430.682 17.1123 430.239 16.0641 428.949 16.0641C428.062 16.0641 427.376 16.7092 427.094 17.4752C427.014 17.6364 427.014 17.8783 427.014 18.1202V22.6758H425.643V17.193H425.683Z" fill="white"/>
<path d="M435.036 19.1685C435.036 21.023 436.246 21.7889 437.616 21.7889C438.584 21.7889 439.189 21.6277 439.713 21.4261L439.955 22.3937C439.471 22.5952 438.624 22.8775 437.415 22.8775C435.117 22.8775 433.706 21.3455 433.706 19.0878C433.706 16.8302 435.077 15.016 437.254 15.016C439.713 15.016 440.358 17.193 440.358 18.5637C440.358 18.8459 440.358 19.0475 440.317 19.2088H435.036V19.1685ZM439.027 18.1606C439.027 17.314 438.665 15.9432 437.133 15.9432C435.722 15.9432 435.157 17.2333 435.036 18.1606H439.027Z" fill="white"/>
<path d="M299.013 29.8116L289.781 56.9841H294.014L296.755 48.6388H305.705L308.527 56.9841H312.881L303.609 29.8116H299.013ZM301.19 34.2866C301.512 35.4961 301.835 36.7459 302.278 38.1166L304.778 45.333H297.682L300.142 38.0763C300.504 36.9071 300.867 35.617 301.19 34.2866Z" fill="white"/>
<path d="M324.814 36.8668C322.033 36.8668 319.775 37.9553 318.283 40.0114L318.122 37.3103H314.373V37.6731C314.494 39.3664 314.534 41.2209 314.534 43.8817V64.8052H318.646V55.049C319.936 56.5809 321.952 57.4679 324.25 57.4679C326.548 57.4679 328.846 56.5406 330.459 54.8071C332.273 52.9123 333.2 50.1708 333.2 46.9053C333.2 44.0026 332.394 41.5031 330.821 39.6889C329.289 37.8747 327.153 36.9071 324.774 36.9071L324.814 36.8668ZM323.807 40.2533C327.475 40.2533 329.128 43.6398 329.128 47.0262C329.128 51.3803 327.032 54.0411 323.686 54.0411C321.388 54.0411 319.412 52.4688 318.848 50.2111C318.767 49.8483 318.687 49.4048 318.687 48.8807V45.5749C318.687 45.2927 318.767 44.9299 318.807 44.567C318.807 44.4461 318.848 44.3251 318.848 44.2445C319.453 41.9062 321.509 40.2533 323.807 40.2533Z" fill="white"/>
<path d="M345.98 36.8668C343.198 36.8668 340.941 37.9553 339.449 40.0114L339.288 37.3103H335.538V37.6731C335.659 39.3664 335.7 41.2209 335.7 43.8817V64.8052H339.812V55.049C341.102 56.5809 343.118 57.4679 345.416 57.4679C347.714 57.4679 350.011 56.5406 351.664 54.8071C353.479 52.9123 354.406 50.1708 354.406 46.9053C354.406 44.0026 353.6 41.5031 352.027 39.6889C350.495 37.8747 348.359 36.9071 345.98 36.9071V36.8668ZM344.972 40.2533C348.641 40.2533 350.253 43.6398 350.253 47.0262C350.253 51.3803 348.157 54.0411 344.811 54.0411C342.513 54.0411 340.537 52.4688 339.973 50.2111C339.892 49.8483 339.812 49.4048 339.812 48.8807V45.5749C339.812 45.2927 339.892 44.9299 339.933 44.567C339.933 44.4461 339.973 44.3654 339.973 44.2445C340.578 41.9062 342.634 40.2533 344.932 40.2533H344.972Z" fill="white"/>
<path d="M372.507 41.3015C368.677 39.8098 367.428 38.6407 367.428 36.504C367.428 34.6898 368.879 32.8353 372.104 32.8353C374.765 32.8353 376.458 33.7625 376.942 34.0447L377.305 34.2463L378.474 30.8195L378.232 30.6986C377.547 30.2954 375.571 29.3682 372.265 29.3682C367.024 29.3682 363.356 32.4724 363.356 36.9071C363.356 40.4952 365.654 42.9544 370.572 44.7686C374.039 46.0587 375.37 47.3891 375.37 49.687C375.37 52.2672 373.354 53.8798 370.129 53.8798C368.032 53.8798 365.855 53.2751 364.202 52.1866L363.839 51.9447L362.751 55.4521L362.953 55.573C364.485 56.6212 367.428 57.3469 369.887 57.3469C376.942 57.3469 379.441 53.0332 379.441 49.3645C379.441 45.6958 377.426 43.2366 372.507 41.2611V41.3015Z" fill="white"/>
<path d="M386.819 32.5934L382.788 33.8432V37.27H379.845V40.5355H382.788V50.6143C382.788 53.0332 383.272 54.7668 384.199 55.815C385.126 56.8228 386.537 57.3873 388.19 57.3873C389.762 57.3873 390.851 57.0647 391.375 56.9035L391.617 56.8228L391.415 53.517L391.012 53.6379C390.488 53.7992 389.964 53.8395 389.117 53.8395C387.505 53.8395 386.86 52.8316 386.86 50.453V40.4952H391.818V37.2297H386.86V32.5531L386.819 32.5934Z" fill="white"/>
<path d="M401.978 36.8668C396.213 36.8668 392.221 41.1402 392.221 47.3085C392.221 53.4767 396.092 57.4276 401.655 57.4276C406.372 57.4276 411.411 54.162 411.411 46.9456C411.411 44.0026 410.525 41.5031 408.791 39.6889C407.057 37.8344 404.679 36.8668 401.937 36.8668H401.978ZM401.857 40.092C405.566 40.092 407.219 43.6801 407.219 47.0262C407.219 51.1384 404.921 54.1217 401.776 54.1217C398.672 54.1217 396.414 51.1787 396.414 47.1472C396.414 43.6398 398.107 40.092 401.897 40.092H401.857Z" fill="white"/>
<path d="M424.03 37.028L423.788 36.9474C423.425 36.8667 423.143 36.8264 422.78 36.8264C420.644 36.8264 418.708 38.0762 417.62 40.1323L417.499 37.2699H413.83V37.6327C413.951 39.2453 413.992 41.0998 413.992 43.5591V56.984H418.063V46.5021C418.063 45.9376 418.063 45.3732 418.184 44.8895C418.668 42.3899 420.361 40.737 422.498 40.737C422.901 40.737 423.264 40.737 423.587 40.8176H424.03V37.028Z" fill="white"/>
<path d="M433.262 36.8265C427.779 36.8265 423.949 41.1805 423.949 47.4697C423.949 53.7589 427.739 57.3872 433.625 57.3872C436.729 57.3872 438.866 56.7019 440.116 56.1375L440.358 56.0165L439.551 52.9526L439.189 53.0735C438.06 53.517 436.568 54.0008 434.028 54.0008C432.254 54.0008 428.142 53.396 427.86 48.0341H441.124L441.164 47.7922C441.245 47.3891 441.285 46.8246 441.285 46.0587C441.285 41.7853 439.148 36.7458 433.141 36.7458L433.262 36.8265ZM432.98 39.9711C434.23 39.9711 435.238 40.3742 436.004 41.1402C437.173 42.3497 437.374 44.1235 437.415 44.9701H428.062C428.424 42.5916 429.916 40.0114 433.02 40.0114L432.98 39.9711Z" fill="white"/>
</g>
<defs>
<linearGradient id="paint0_linear_1_324" x1="28.7851" y1="13.8871" x2="28.7851" y2="62.6282" gradientUnits="userSpaceOnUse">
<stop stop-color="#257DB0"/>
<stop offset="0.21" stop-color="#3C8FB2"/>
<stop offset="0.74" stop-color="#73BCB9"/>
<stop offset="1" stop-color="#89CEBC"/>
</linearGradient>
<linearGradient id="paint1_linear_1_324" x1="16.489" y1="25.9817" x2="47.693" y2="25.9817" gradientUnits="userSpaceOnUse">
<stop stop-color="#51BFAC"/>
<stop offset="1" stop-color="#DEE899"/>
</linearGradient>
<linearGradient id="paint2_linear_1_324" x1="32.091" y1="38.2375" x2="32.091" y2="62.7895" gradientUnits="userSpaceOnUse">
<stop stop-color="#EB403D"/>
<stop offset="0.19" stop-color="#D54251"/>
<stop offset="0.74" stop-color="#9E4787"/>
<stop offset="1" stop-color="#894A9C"/>
</linearGradient>
<linearGradient id="paint3_linear_1_324" x1="50.0313" y1="31.7064" x2="50.0313" y2="44.7685" gradientUnits="userSpaceOnUse">
<stop stop-color="#F48779"/>
<stop offset="0.61" stop-color="#F9B075"/>
<stop offset="1" stop-color="#FDC674"/>
</linearGradient>
<clipPath id="clip0_1_324">
<rect width="220" height="71.9626" fill="white" transform="translate(0 0.0186768)"/>
</clipPath>
<clipPath id="clip1_1_324">
<rect width="220" height="71.9626" fill="white" transform="translate(236 0.0186768)"/>
</clipPath>
</defs>
</svg>
