<svg width="932" height="720" viewBox="0 0 932 720" fill="none" xmlns="http://www.w3.org/2000/svg">
<g opacity="0.75" clip-path="url(#clip0_1_439)">
<mask id="mask0_1_439" style="mask-type:luminance" maskUnits="userSpaceOnUse" x="0" y="0" width="1000" height="720">
<path d="M1000 0H0V720H1000V0Z" fill="white"/>
</mask>
<g mask="url(#mask0_1_439)">
<path d="M561.67 594.84L215.31 720V529.41L561.67 404.25V594.84Z" fill="url(#paint0_linear_1_439)"/>
<path d="M796.58 333.67L450.22 458.83V268.28L796.58 143.12V333.67Z" fill="url(#paint1_linear_1_439)"/>
<path d="M787.06 501.67L675.65 541.91V440.09L787.06 399.8V501.67Z" fill="url(#paint2_linear_1_439)"/>
<path d="M295.2 561.22L0 667.91V678.24L293.48 572.15C294.04 568.68 294.6 564.97 295.2 561.18V561.23V561.22Z" fill="url(#paint3_linear_1_439)"/>
<path d="M750.83 457.64L112.9 688.19V262.78L750.83 32.23V457.64Z" fill="url(#paint4_linear_1_439)"/>
<path d="M703.96 154.24L475.63 236.76V84.51L703.96 1.98999V154.24Z" fill="url(#paint5_linear_1_439)"/>
<path d="M817.42 307.05L589.09 389.57V237.31L817.42 154.79V307.04V307.05Z" fill="url(#paint6_linear_1_439)"/>
<path d="M378.45 207.77L266.99 248.06V146.19L378.45 105.95V207.78V207.77Z" fill="url(#paint7_linear_1_439)"/>
<path d="M847.41 60.8899L317.45 252.41V242.08L847.41 50.5699V60.8999V60.8899Z" fill="url(#paint8_linear_1_439)"/>
<path d="M614.33 10.33L84.3601 201.89V191.52L614.33 0V10.33Z" fill="url(#paint9_linear_1_439)"/>
<path d="M1000 332.8L470.04 524.32V513.95L1000 322.43V332.8Z" fill="url(#paint10_linear_1_439)"/>
<path d="M811.41 473.01L281.45 664.58V654.21L811.41 462.69V473.02V473.01Z" fill="url(#paint11_linear_1_439)"/>
<path d="M244.14 534.13C244.14 535.61 242.93 536.86 241.39 536.86C239.85 536.86 238.64 535.66 238.64 534.13C238.64 532.6 239.85 531.4 241.39 531.4C242.93 531.4 244.14 532.6 244.14 534.13ZM241.39 545.8C239.9 545.8 238.64 547 238.64 548.53C238.64 550.06 239.85 551.26 241.39 551.26C242.93 551.26 244.14 550.06 244.14 548.53C244.14 547 242.93 545.8 241.39 545.8ZM241.39 517C239.9 517 238.64 518.2 238.64 519.73C238.64 521.26 239.85 522.46 241.39 522.46C242.93 522.46 244.14 521.26 244.14 519.73C244.14 518.2 242.93 517 241.39 517ZM241.39 473.8C239.9 473.8 238.64 475 238.64 476.53C238.64 478.06 239.85 479.26 241.39 479.26C242.93 479.26 244.14 478.06 244.14 476.53C244.14 475 242.93 473.8 241.39 473.8ZM241.39 488.2C239.9 488.2 238.64 489.4 238.64 490.93C238.64 492.46 239.85 493.66 241.39 493.66C242.93 493.66 244.14 492.46 244.14 490.93C244.14 489.4 242.93 488.2 241.39 488.2ZM256.83 372.99C255.34 372.99 254.08 374.19 254.08 375.72C254.08 377.25 255.29 378.45 256.83 378.45C258.37 378.45 259.58 377.25 259.58 375.72C259.58 374.19 258.37 372.99 256.83 372.99ZM256.83 344.19C255.34 344.19 254.08 345.39 254.08 346.92C254.08 348.45 255.29 349.65 256.83 349.65C258.37 349.65 259.58 348.45 259.58 346.92C259.58 345.39 258.37 344.19 256.83 344.19ZM256.83 358.59C255.34 358.59 254.08 359.79 254.08 361.32C254.08 362.85 255.29 364.05 256.83 364.05C258.37 364.05 259.58 362.85 259.58 361.32C259.58 359.79 258.37 358.59 256.83 358.59ZM241.39 459.4C239.9 459.4 238.64 460.6 238.64 462.13C238.64 463.66 239.85 464.86 241.39 464.86C242.93 464.86 244.14 463.66 244.14 462.13C244.14 460.6 242.93 459.4 241.39 459.4ZM256.83 329.79C255.34 329.79 254.08 330.99 254.08 332.52C254.08 334.05 255.29 335.25 256.83 335.25C258.37 335.25 259.58 334.05 259.58 332.52C259.58 330.99 258.37 329.79 256.83 329.79ZM272.27 502.65C270.78 502.65 269.52 503.85 269.52 505.38C269.52 506.91 270.73 508.11 272.27 508.11C273.81 508.11 275.02 506.91 275.02 505.38C275.02 503.85 273.81 502.65 272.27 502.65ZM256.83 315.39C255.34 315.39 254.08 316.59 254.08 318.12C254.08 319.65 255.29 320.85 256.83 320.85C258.37 320.85 259.58 319.65 259.58 318.12C259.58 316.59 258.37 315.39 256.83 315.39ZM241.39 502.65C239.9 502.65 238.64 503.85 238.64 505.38C238.64 506.91 239.85 508.11 241.39 508.11C242.93 508.11 244.14 506.91 244.14 505.38C244.14 503.85 242.93 502.65 241.39 502.65ZM241.39 329.79C239.9 329.79 238.64 330.99 238.64 332.52C238.64 334.05 239.85 335.25 241.39 335.25C242.93 335.25 244.14 334.05 244.14 332.52C244.14 330.99 242.93 329.79 241.39 329.79ZM241.39 344.19C239.9 344.19 238.64 345.39 238.64 346.92C238.64 348.45 239.85 349.65 241.39 349.65C242.93 349.65 244.14 348.45 244.14 346.92C244.14 345.39 242.93 344.19 241.39 344.19ZM241.39 445C239.9 445 238.64 446.2 238.64 447.73C238.64 449.26 239.85 450.46 241.39 450.46C242.93 450.46 244.14 449.26 244.14 447.73C244.14 446.2 242.93 445 241.39 445ZM225.95 517C224.46 517 223.2 518.2 223.2 519.73C223.2 521.26 224.41 522.46 225.95 522.46C227.49 522.46 228.7 521.26 228.7 519.73C228.7 518.2 227.49 517 225.95 517ZM225.95 531.4C224.46 531.4 223.2 532.6 223.2 534.13C223.2 535.66 224.41 536.86 225.95 536.86C227.49 536.86 228.7 535.66 228.7 534.13C228.7 532.6 227.49 531.4 225.95 531.4ZM225.95 545.8C224.46 545.8 223.2 547 223.2 548.53C223.2 550.06 224.41 551.26 225.95 551.26C227.49 551.26 228.7 550.06 228.7 548.53C228.7 547 227.49 545.8 225.95 545.8ZM241.39 416.19C239.9 416.19 238.64 417.39 238.64 418.92C238.64 420.45 239.85 421.65 241.39 421.65C242.93 421.65 244.14 420.45 244.14 418.92C244.14 417.39 242.93 416.19 241.39 416.19ZM241.39 430.59C239.9 430.59 238.64 431.79 238.64 433.32C238.64 434.85 239.85 436.05 241.39 436.05C242.93 436.05 244.14 434.85 244.14 433.32C244.14 431.79 242.93 430.59 241.39 430.59ZM241.39 401.79C239.9 401.79 238.64 402.99 238.64 404.52C238.64 406.05 239.85 407.25 241.39 407.25C242.93 407.25 244.14 406.05 244.14 404.52C244.14 402.99 242.93 401.79 241.39 401.79ZM241.39 372.99C239.9 372.99 238.64 374.19 238.64 375.72C238.64 377.25 239.85 378.45 241.39 378.45C242.93 378.45 244.14 377.25 244.14 375.72C244.14 374.19 242.93 372.99 241.39 372.99ZM241.39 387.39C239.9 387.39 238.64 388.59 238.64 390.12C238.64 391.65 239.85 392.85 241.39 392.85C242.93 392.85 244.14 391.65 244.14 390.12C244.14 388.59 242.93 387.39 241.39 387.39ZM241.39 358.59C239.9 358.59 238.64 359.79 238.64 361.32C238.64 362.85 239.85 364.05 241.39 364.05C242.93 364.05 244.14 362.85 244.14 361.32C244.14 359.79 242.93 358.59 241.39 358.59ZM272.22 416.19C270.73 416.19 269.47 417.39 269.47 418.92C269.47 420.45 270.68 421.65 272.22 421.65C273.76 421.65 274.97 420.45 274.97 418.92C274.97 417.39 273.76 416.19 272.22 416.19ZM272.22 401.79C270.73 401.79 269.47 402.99 269.47 404.52C269.47 406.05 270.68 407.25 272.22 407.25C273.76 407.25 274.97 406.05 274.97 404.52C274.97 402.99 273.76 401.79 272.22 401.79ZM272.22 372.99C270.73 372.99 269.47 374.19 269.47 375.72C269.47 377.25 270.68 378.45 272.22 378.45C273.76 378.45 274.97 377.25 274.97 375.72C274.97 374.19 273.76 372.99 272.22 372.99ZM272.22 387.39C270.73 387.39 269.47 388.59 269.47 390.12C269.47 391.65 270.68 392.85 272.22 392.85C273.76 392.85 274.97 391.65 274.97 390.12C274.97 388.59 273.76 387.39 272.22 387.39ZM272.22 344.19C270.73 344.19 269.47 345.39 269.47 346.92C269.47 348.45 270.68 349.65 272.22 349.65C273.76 349.65 274.97 348.45 274.97 346.92C274.97 345.39 273.76 344.19 272.22 344.19ZM272.22 358.59C270.73 358.59 269.47 359.79 269.47 361.32C269.47 362.85 270.68 364.05 272.22 364.05C273.76 364.05 274.97 362.85 274.97 361.32C274.97 359.79 273.76 358.59 272.22 358.59ZM272.22 444.99C270.73 444.99 269.47 446.19 269.47 447.72C269.47 449.25 270.68 450.45 272.22 450.45C273.76 450.45 274.97 449.25 274.97 447.72C274.97 446.19 273.76 444.99 272.22 444.99ZM272.22 488.19C270.73 488.19 269.47 489.39 269.47 490.92C269.47 492.45 270.68 493.65 272.22 493.65C273.76 493.65 274.97 492.45 274.97 490.92C274.97 489.39 273.76 488.19 272.22 488.19ZM272.22 473.79C270.73 473.79 269.47 474.99 269.47 476.52C269.47 478.05 270.68 479.25 272.22 479.25C273.76 479.25 274.97 478.05 274.97 476.52C274.97 474.99 273.76 473.79 272.22 473.79ZM272.22 459.39C270.73 459.39 269.47 460.59 269.47 462.12C269.47 463.65 270.68 464.85 272.22 464.85C273.76 464.85 274.97 463.65 274.97 462.12C274.97 460.59 273.76 459.39 272.22 459.39ZM272.22 329.78C270.73 329.78 269.47 330.98 269.47 332.51C269.47 334.04 270.68 335.24 272.22 335.24C273.76 335.24 274.97 334.04 274.97 332.51C274.97 330.98 273.76 329.78 272.22 329.78ZM272.22 430.59C270.73 430.59 269.47 431.79 269.47 433.32C269.47 434.85 270.68 436.05 272.22 436.05C273.76 436.05 274.97 434.85 274.97 433.32C274.97 431.79 273.76 430.59 272.22 430.59ZM256.78 531.4C255.29 531.4 254.03 532.6 254.03 534.13C254.03 535.66 255.24 536.86 256.78 536.86C258.32 536.86 259.53 535.66 259.53 534.13C259.53 532.6 258.32 531.4 256.78 531.4ZM256.78 430.59C255.29 430.59 254.03 431.79 254.03 433.32C254.03 434.85 255.24 436.05 256.78 436.05C258.32 436.05 259.53 434.85 259.53 433.32C259.53 431.79 258.32 430.59 256.78 430.59ZM256.78 444.99C255.29 444.99 254.03 446.19 254.03 447.72C254.03 449.25 255.24 450.45 256.78 450.45C258.32 450.45 259.53 449.25 259.53 447.72C259.53 446.19 258.32 444.99 256.78 444.99ZM256.78 473.79C255.29 473.79 254.03 474.99 254.03 476.52C254.03 478.05 255.24 479.25 256.78 479.25C258.32 479.25 259.53 478.05 259.53 476.52C259.53 474.99 258.32 473.79 256.78 473.79ZM256.78 459.39C255.29 459.39 254.03 460.59 254.03 462.12C254.03 463.65 255.24 464.85 256.78 464.85C258.32 464.85 259.53 463.65 259.53 462.12C259.53 460.59 258.32 459.39 256.78 459.39ZM256.78 401.79C255.29 401.79 254.03 402.99 254.03 404.52C254.03 406.05 255.24 407.25 256.78 407.25C258.32 407.25 259.53 406.05 259.53 404.52C259.53 402.99 258.32 401.79 256.78 401.79ZM256.78 416.19C255.29 416.19 254.03 417.39 254.03 418.92C254.03 420.45 255.24 421.65 256.78 421.65C258.32 421.65 259.53 420.45 259.53 418.92C259.53 417.39 258.32 416.19 256.78 416.19ZM256.78 517C255.29 517 254.03 518.2 254.03 519.73C254.03 521.26 255.24 522.46 256.78 522.46C258.32 522.46 259.53 521.26 259.53 519.73C259.53 518.2 258.32 517 256.78 517ZM272.22 315.34C270.73 315.34 269.47 316.54 269.47 318.07C269.47 319.6 270.68 320.8 272.22 320.8C273.76 320.8 274.97 319.6 274.97 318.07C274.97 316.54 273.76 315.34 272.22 315.34ZM256.78 502.6C255.29 502.6 254.03 503.8 254.03 505.33C254.03 506.86 255.24 508.06 256.78 508.06C258.32 508.06 259.53 506.86 259.53 505.33C259.53 503.8 258.32 502.6 256.78 502.6ZM256.78 488.2C255.29 488.2 254.03 489.4 254.03 490.93C254.03 492.46 255.24 493.66 256.78 493.66C258.32 493.66 259.53 492.46 259.53 490.93C259.53 489.4 258.32 488.2 256.78 488.2ZM256.78 387.39C255.29 387.39 254.03 388.59 254.03 390.12C254.03 391.65 255.24 392.85 256.78 392.85C258.32 392.85 259.53 391.65 259.53 390.12C259.53 388.59 258.32 387.39 256.78 387.39ZM195.08 560.25C193.59 560.25 192.33 561.45 192.33 562.98C192.33 564.51 193.54 565.71 195.08 565.71C196.62 565.71 197.83 564.51 197.83 562.98C197.83 561.45 196.62 560.25 195.08 560.25ZM195.08 517.05C193.59 517.05 192.33 518.25 192.33 519.78C192.33 521.31 193.54 522.51 195.08 522.51C196.62 522.51 197.83 521.31 197.83 519.78C197.83 518.25 196.62 517.05 195.08 517.05ZM195.08 531.45C193.59 531.45 192.33 532.65 192.33 534.18C192.33 535.71 193.54 536.91 195.08 536.91C196.62 536.91 197.83 535.71 197.83 534.18C197.83 532.65 196.62 531.45 195.08 531.45ZM195.08 502.65C193.59 502.65 192.33 503.85 192.33 505.38C192.33 506.91 193.54 508.11 195.08 508.11C196.62 508.11 197.83 506.91 197.83 505.38C197.83 503.85 196.62 502.65 195.08 502.65ZM195.08 488.25C193.59 488.25 192.33 489.45 192.33 490.98C192.33 492.51 193.54 493.71 195.08 493.71C196.62 493.71 197.83 492.51 197.83 490.98C197.83 489.45 196.62 488.25 195.08 488.25ZM195.08 473.85C193.59 473.85 192.33 475.05 192.33 476.58C192.33 478.11 193.54 479.31 195.08 479.31C196.62 479.31 197.83 478.11 197.83 476.58C197.83 475.05 196.62 473.85 195.08 473.85ZM210.52 344.24C209.03 344.24 207.77 345.44 207.77 346.97C207.77 348.5 208.98 349.7 210.52 349.7C212.06 349.7 213.27 348.5 213.27 346.97C213.27 345.44 212.06 344.24 210.52 344.24ZM210.52 358.64C209.03 358.64 207.77 359.84 207.77 361.37C207.77 362.9 208.98 364.1 210.52 364.1C212.06 364.1 213.27 362.9 213.27 361.37C213.27 359.84 212.06 358.64 210.52 358.64ZM195.08 459.45C193.59 459.45 192.33 460.65 192.33 462.18C192.33 463.71 193.54 464.91 195.08 464.91C196.62 464.91 197.83 463.71 197.83 462.18C197.83 460.65 196.62 459.45 195.08 459.45ZM210.52 329.84C209.03 329.84 207.77 331.04 207.77 332.57C207.77 334.1 208.98 335.3 210.52 335.3C212.06 335.3 213.27 334.1 213.27 332.57C213.27 331.04 212.06 329.84 210.52 329.84ZM195.08 545.9C193.59 545.9 192.33 547.1 192.33 548.63C192.33 550.16 193.54 551.36 195.08 551.36C196.62 551.36 197.83 550.16 197.83 548.63C197.83 547.1 196.62 545.9 195.08 545.9ZM195.08 387.49C193.59 387.49 192.33 388.69 192.33 390.22C192.33 391.75 193.54 392.95 195.08 392.95C196.62 392.95 197.83 391.75 197.83 390.22C197.83 388.69 196.62 387.49 195.08 387.49ZM195.08 358.69C193.59 358.69 192.33 359.89 192.33 361.42C192.33 362.95 193.54 364.15 195.08 364.15C196.62 364.15 197.83 362.95 197.83 361.42C197.83 359.89 196.62 358.69 195.08 358.69ZM179.64 545.95C178.15 545.95 176.89 547.15 176.89 548.68C176.89 550.21 178.1 551.41 179.64 551.41C181.18 551.41 182.39 550.21 182.39 548.68C182.39 547.15 181.18 545.95 179.64 545.95ZM195.08 344.29C193.59 344.29 192.33 345.49 192.33 347.02C192.33 348.55 193.54 349.75 195.08 349.75C196.62 349.75 197.83 348.55 197.83 347.02C197.83 345.49 196.62 344.29 195.08 344.29ZM179.64 531.55C178.15 531.55 176.89 532.75 176.89 534.28C176.89 535.81 178.1 537.01 179.64 537.01C181.18 537.01 182.39 535.81 182.39 534.28C182.39 532.75 181.18 531.55 179.64 531.55ZM179.64 560.35C178.15 560.35 176.89 561.55 176.89 563.08C176.89 564.61 178.1 565.81 179.64 565.81C181.18 565.81 182.39 564.61 182.39 563.08C182.39 561.55 181.18 560.35 179.64 560.35ZM195.08 373.09C193.59 373.09 192.33 374.29 192.33 375.82C192.33 377.35 193.54 378.55 195.08 378.55C196.62 378.55 197.83 377.35 197.83 375.82C197.83 374.29 196.62 373.09 195.08 373.09ZM195.08 430.69C193.59 430.69 192.33 431.89 192.33 433.42C192.33 434.95 193.54 436.15 195.08 436.15C196.62 436.15 197.83 434.95 197.83 433.42C197.83 431.89 196.62 430.69 195.08 430.69ZM195.08 416.29C193.59 416.29 192.33 417.49 192.33 419.02C192.33 420.55 193.54 421.75 195.08 421.75C196.62 421.75 197.83 420.55 197.83 419.02C197.83 417.49 196.62 416.29 195.08 416.29ZM195.08 401.89C193.59 401.89 192.33 403.09 192.33 404.62C192.33 406.15 193.54 407.35 195.08 407.35C196.62 407.35 197.83 406.15 197.83 404.62C197.83 403.09 196.62 401.89 195.08 401.89ZM195.08 445.09C193.59 445.09 192.33 446.29 192.33 447.82C192.33 449.35 193.54 450.55 195.08 450.55C196.62 450.55 197.83 449.35 197.83 447.82C197.83 446.29 196.62 445.09 195.08 445.09ZM210.52 373.08C209.03 373.08 207.77 374.28 207.77 375.81C207.77 377.34 208.98 378.54 210.52 378.54C212.06 378.54 213.27 377.34 213.27 375.81C213.27 374.28 212.06 373.08 210.52 373.08ZM225.96 445.09C224.47 445.09 223.21 446.29 223.21 447.82C223.21 449.35 224.42 450.55 225.96 450.55C227.5 450.55 228.71 449.35 228.71 447.82C228.71 446.29 227.5 445.09 225.96 445.09ZM225.96 387.49C224.47 387.49 223.21 388.69 223.21 390.22C223.21 391.75 224.42 392.95 225.96 392.95C227.5 392.95 228.71 391.75 228.71 390.22C228.71 388.69 227.5 387.49 225.96 387.49ZM225.96 416.29C224.47 416.29 223.21 417.49 223.21 419.02C223.21 420.55 224.42 421.75 225.96 421.75C227.5 421.75 228.71 420.55 228.71 419.02C228.71 417.49 227.5 416.29 225.96 416.29ZM225.96 373.09C224.47 373.09 223.21 374.29 223.21 375.82C223.21 377.35 224.42 378.55 225.96 378.55C227.5 378.55 228.71 377.35 228.71 375.82C228.71 374.29 227.5 373.09 225.96 373.09ZM225.96 401.89C224.47 401.89 223.21 403.09 223.21 404.62C223.21 406.15 224.42 407.35 225.96 407.35C227.5 407.35 228.71 406.15 228.71 404.62C228.71 403.09 227.5 401.89 225.96 401.89ZM225.96 344.29C224.47 344.29 223.21 345.49 223.21 347.02C223.21 348.55 224.42 349.75 225.96 349.75C227.5 349.75 228.71 348.55 228.71 347.02C228.71 345.49 227.5 344.29 225.96 344.29ZM225.96 358.69C224.47 358.69 223.21 359.89 223.21 361.42C223.21 362.95 224.42 364.15 225.96 364.15C227.5 364.15 228.71 362.95 228.71 361.42C228.71 359.89 227.5 358.69 225.96 358.69ZM225.96 430.7C224.47 430.7 223.21 431.9 223.21 433.43C223.21 434.96 224.42 436.16 225.96 436.16C227.5 436.16 228.71 434.96 228.71 433.43C228.71 431.9 227.5 430.7 225.96 430.7ZM225.96 488.3C224.47 488.3 223.21 489.5 223.21 491.03C223.21 492.56 224.42 493.76 225.96 493.76C227.5 493.76 228.71 492.56 228.71 491.03C228.71 489.5 227.5 488.3 225.96 488.3ZM225.96 473.9C224.47 473.9 223.21 475.1 223.21 476.63C223.21 478.16 224.42 479.36 225.96 479.36C227.5 479.36 228.71 478.16 228.71 476.63C228.71 475.1 227.5 473.9 225.96 473.9ZM225.96 459.5C224.47 459.5 223.21 460.7 223.21 462.23C223.21 463.76 224.42 464.96 225.96 464.96C227.5 464.96 228.71 463.76 228.71 462.23C228.71 460.7 227.5 459.5 225.96 459.5ZM225.96 502.7C224.47 502.7 223.21 503.9 223.21 505.43C223.21 506.96 224.42 508.16 225.96 508.16C227.5 508.16 228.71 506.96 228.71 505.43C228.71 503.9 227.5 502.7 225.96 502.7ZM225.96 329.84C224.47 329.84 223.21 331.04 223.21 332.57C223.21 334.1 224.42 335.3 225.96 335.3C227.5 335.3 228.71 334.1 228.71 332.57C228.71 331.04 227.5 329.84 225.96 329.84ZM210.52 473.85C209.03 473.85 207.77 475.05 207.77 476.58C207.77 478.11 208.98 479.31 210.52 479.31C212.06 479.31 213.27 478.11 213.27 476.58C213.27 475.05 212.06 473.85 210.52 473.85ZM210.52 531.45C209.03 531.45 207.77 532.65 207.77 534.18C207.77 535.71 208.98 536.91 210.52 536.91C212.06 536.91 213.27 535.71 213.27 534.18C213.27 532.65 212.06 531.45 210.52 531.45ZM210.52 445.05C209.03 445.05 207.77 446.25 207.77 447.78C207.77 449.31 208.98 450.51 210.52 450.51C212.06 450.51 213.27 449.31 213.27 447.78C213.27 446.25 212.06 445.05 210.52 445.05ZM210.52 401.85C209.03 401.85 207.77 403.05 207.77 404.58C207.77 406.11 208.98 407.31 210.52 407.31C212.06 407.31 213.27 406.11 213.27 404.58C213.27 403.05 212.06 401.85 210.52 401.85ZM210.52 459.45C209.03 459.45 207.77 460.65 207.77 462.18C207.77 463.71 208.98 464.91 210.52 464.91C212.06 464.91 213.27 463.71 213.27 462.18C213.27 460.65 212.06 459.45 210.52 459.45ZM210.52 416.25C209.03 416.25 207.77 417.45 207.77 418.98C207.77 420.51 208.98 421.71 210.52 421.71C212.06 421.71 213.27 420.51 213.27 418.98C213.27 417.45 212.06 416.25 210.52 416.25ZM210.52 430.65C209.03 430.65 207.77 431.85 207.77 433.38C207.77 434.91 208.98 436.11 210.52 436.11C212.06 436.11 213.27 434.91 213.27 433.38C213.27 431.85 212.06 430.65 210.52 430.65ZM210.52 517.05C209.03 517.05 207.77 518.25 207.77 519.78C207.77 521.31 208.98 522.51 210.52 522.51C212.06 522.51 213.27 521.31 213.27 519.78C213.27 518.25 212.06 517.05 210.52 517.05ZM210.52 545.85C209.03 545.85 207.77 547.05 207.77 548.58C207.77 550.11 208.98 551.31 210.52 551.31C212.06 551.31 213.27 550.11 213.27 548.58C213.27 547.05 212.06 545.85 210.52 545.85ZM210.52 502.65C209.03 502.65 207.77 503.85 207.77 505.38C207.77 506.91 208.98 508.11 210.52 508.11C212.06 508.11 213.27 506.91 213.27 505.38C213.27 503.85 212.06 502.65 210.52 502.65ZM210.52 387.44C209.03 387.44 207.77 388.64 207.77 390.17C207.77 391.7 208.98 392.9 210.52 392.9C212.06 392.9 213.27 391.7 213.27 390.17C213.27 388.64 212.06 387.44 210.52 387.44ZM210.52 488.25C209.03 488.25 207.77 489.45 207.77 490.98C207.77 492.51 208.98 493.71 210.52 493.71C212.06 493.71 213.27 492.51 213.27 490.98C213.27 489.45 212.06 488.25 210.52 488.25ZM287.65 430.65C286.16 430.65 284.9 431.85 284.9 433.38C284.9 434.91 286.11 436.11 287.65 436.11C289.19 436.11 290.4 434.91 290.4 433.38C290.4 431.85 289.19 430.65 287.65 430.65ZM349.35 286.64C347.86 286.64 346.6 287.84 346.6 289.37C346.6 290.9 347.81 292.1 349.35 292.1C350.89 292.1 352.1 290.9 352.1 289.37C352.1 287.84 350.89 286.64 349.35 286.64ZM349.35 301.04C347.86 301.04 346.6 302.24 346.6 303.77C346.6 305.3 347.81 306.5 349.35 306.5C350.89 306.5 352.1 305.3 352.1 303.77C352.1 302.24 350.89 301.04 349.35 301.04ZM349.77 277.66C350.14 277.61 350.47 277.48 350.75 277.29L349.77 277.66ZM349.35 315.45C347.86 315.45 346.6 316.65 346.6 318.18C346.6 319.71 347.81 320.91 349.35 320.91C350.89 320.91 352.1 319.71 352.1 318.18C352.1 316.65 350.89 315.45 349.35 315.45ZM333.91 488.31C332.42 488.31 331.16 489.51 331.16 491.04C331.16 492.57 332.37 493.77 333.91 493.77C335.45 493.77 336.66 492.57 336.66 491.04C336.66 489.51 335.45 488.31 333.91 488.31ZM333.91 473.91C332.42 473.91 331.16 475.11 331.16 476.64C331.16 478.17 332.37 479.37 333.91 479.37C335.45 479.37 336.66 478.17 336.66 476.64C336.66 475.11 335.45 473.91 333.91 473.91ZM333.91 502.71C332.42 502.71 331.16 503.91 331.16 505.44C331.16 506.97 332.37 508.17 333.91 508.17C335.45 508.17 336.66 506.97 336.66 505.44C336.66 503.91 335.45 502.71 333.91 502.71ZM349.35 373.1C347.86 373.1 346.6 374.3 346.6 375.83C346.6 377.36 347.81 378.56 349.35 378.56C350.89 378.56 352.1 377.36 352.1 375.83C352.1 374.3 350.89 373.1 349.35 373.1ZM349.35 401.9C347.86 401.9 346.6 403.1 346.6 404.63C346.6 406.16 347.81 407.36 349.35 407.36C350.89 407.36 352.1 406.16 352.1 404.63C352.1 403.1 350.89 401.9 349.35 401.9ZM349.35 344.3C347.86 344.3 346.6 345.5 346.6 347.03C346.6 348.56 347.81 349.76 349.35 349.76C350.89 349.76 352.1 348.56 352.1 347.03C352.1 345.5 350.89 344.3 349.35 344.3ZM349.35 358.7C347.86 358.7 346.6 359.9 346.6 361.43C346.6 362.96 347.81 364.16 349.35 364.16C350.89 364.16 352.1 362.96 352.1 361.43C352.1 359.9 350.89 358.7 349.35 358.7ZM349.35 329.9C347.86 329.9 346.6 331.1 346.6 332.63C346.6 334.16 347.81 335.36 349.35 335.36C350.89 335.36 352.1 334.16 352.1 332.63C352.1 331.1 350.89 329.9 349.35 329.9ZM349.35 387.5C347.86 387.5 346.6 388.7 346.6 390.23C346.6 391.76 347.81 392.96 349.35 392.96C350.89 392.96 352.1 391.76 352.1 390.23C352.1 388.7 350.89 387.5 349.35 387.5ZM333.91 373.1C332.42 373.1 331.16 374.3 331.16 375.83C331.16 377.36 332.37 378.56 333.91 378.56C335.45 378.56 336.66 377.36 336.66 375.83C336.66 374.3 335.45 373.1 333.91 373.1ZM333.91 459.51C332.42 459.51 331.16 460.71 331.16 462.24C331.16 463.77 332.37 464.97 333.91 464.97C335.45 464.97 336.66 463.77 336.66 462.24C336.66 460.71 335.45 459.51 333.91 459.51ZM333.91 358.7C332.42 358.7 331.16 359.9 331.16 361.43C331.16 362.96 332.37 364.16 333.91 364.16C335.45 364.16 336.66 362.96 336.66 361.43C336.66 359.9 335.45 358.7 333.91 358.7ZM333.91 344.3C332.42 344.3 331.16 345.5 331.16 347.03C331.16 348.56 332.37 349.76 333.91 349.76C335.45 349.76 336.66 348.56 336.66 347.03C336.66 345.5 335.45 344.3 333.91 344.3ZM333.91 315.5C332.42 315.5 331.16 316.7 331.16 318.23C331.16 319.76 332.37 320.96 333.91 320.96C335.45 320.96 336.66 319.76 336.66 318.23C336.66 316.7 335.45 315.5 333.91 315.5ZM333.91 301.1C332.42 301.1 331.16 302.3 331.16 303.83C331.16 305.36 332.37 306.56 333.91 306.56C335.45 306.56 336.66 305.36 336.66 303.83C336.66 302.3 335.45 301.1 333.91 301.1ZM333.91 329.9C332.42 329.9 331.16 331.1 331.16 332.63C331.16 334.16 332.37 335.36 333.91 335.36C335.45 335.36 336.66 334.16 336.66 332.63C336.66 331.1 335.45 329.9 333.91 329.9ZM333.91 430.71C332.42 430.71 331.16 431.91 331.16 433.44C331.16 434.97 332.37 436.17 333.91 436.17C335.45 436.17 336.66 434.97 336.66 433.44C336.66 431.91 335.45 430.71 333.91 430.71ZM333.91 387.51C332.42 387.51 331.16 388.71 331.16 390.24C331.16 391.77 332.37 392.97 333.91 392.97C335.45 392.97 336.66 391.77 336.66 390.24C336.66 388.71 335.45 387.51 333.91 387.51ZM333.91 445.11C332.42 445.11 331.16 446.31 331.16 447.84C331.16 449.37 332.37 450.57 333.91 450.57C335.45 450.57 336.66 449.37 336.66 447.84C336.66 446.31 335.45 445.11 333.91 445.11ZM333.91 401.91C332.42 401.91 331.16 403.11 331.16 404.64C331.16 406.17 332.37 407.37 333.91 407.37C335.45 407.37 336.66 406.17 336.66 404.64C336.66 403.11 335.45 401.91 333.91 401.91ZM333.91 416.31C332.42 416.31 331.16 417.51 331.16 419.04C331.16 420.57 332.37 421.77 333.91 421.77C335.45 421.77 336.66 420.57 336.66 419.04C336.66 417.51 335.45 416.31 333.91 416.31ZM349.35 459.51C347.86 459.51 346.6 460.71 346.6 462.24C346.6 463.77 347.81 464.97 349.35 464.97C350.89 464.97 352.1 463.77 352.1 462.24C352.1 460.71 350.89 459.51 349.35 459.51ZM364.79 358.7C363.3 358.7 362.04 359.9 362.04 361.43C362.04 362.96 363.25 364.16 364.79 364.16C366.33 364.16 367.54 362.96 367.54 361.43C367.54 359.9 366.33 358.7 364.79 358.7ZM364.79 401.9C363.3 401.9 362.04 403.1 362.04 404.63C362.04 406.16 363.25 407.36 364.79 407.36C366.33 407.36 367.54 406.16 367.54 404.63C367.54 403.1 366.33 401.9 364.79 401.9ZM364.79 430.7C363.3 430.7 362.04 431.9 362.04 433.43C362.04 434.96 363.25 436.16 364.79 436.16C366.33 436.16 367.54 434.96 367.54 433.43C367.54 431.9 366.33 430.7 364.79 430.7ZM364.79 416.3C363.3 416.3 362.04 417.5 362.04 419.03C362.04 420.56 363.25 421.76 364.79 421.76C366.33 421.76 367.54 420.56 367.54 419.03C367.54 417.5 366.33 416.3 364.79 416.3ZM364.79 387.5C363.3 387.5 362.04 388.7 362.04 390.23C362.04 391.76 363.25 392.96 364.79 392.96C366.33 392.96 367.54 391.76 367.54 390.23C367.54 388.7 366.33 387.5 364.79 387.5ZM364.79 373.1C363.3 373.1 362.04 374.3 362.04 375.83C362.04 377.36 363.25 378.56 364.79 378.56C366.33 378.56 367.54 377.36 367.54 375.83C367.54 374.3 366.33 373.1 364.79 373.1ZM364.79 445.11C363.3 445.11 362.04 446.31 362.04 447.84C362.04 449.37 363.25 450.57 364.79 450.57C366.33 450.57 367.54 449.37 367.54 447.84C367.54 446.31 366.33 445.11 364.79 445.11ZM364.79 488.31C363.3 488.31 362.04 489.51 362.04 491.04C362.04 492.57 363.25 493.77 364.79 493.77C366.33 493.77 367.54 492.57 367.54 491.04C367.54 489.51 366.33 488.31 364.79 488.31ZM362.04 274.98C362.04 276.46 363.25 277.71 364.79 277.71C366.33 277.71 367.54 276.51 367.54 274.98C367.54 273.45 366.33 272.25 364.79 272.25L363.06 272.85C362.45 273.36 362.08 274.1 362.08 274.93L362.03 274.98H362.04ZM364.79 459.51C363.3 459.51 362.04 460.71 362.04 462.24C362.04 463.77 363.25 464.97 364.79 464.97C366.33 464.97 367.54 463.77 367.54 462.24C367.54 460.71 366.33 459.51 364.79 459.51ZM364.79 473.91C363.3 473.91 362.04 475.11 362.04 476.64C362.04 478.17 363.25 479.37 364.79 479.37C366.33 479.37 367.54 478.17 367.54 476.64C367.54 475.11 366.33 473.91 364.79 473.91ZM364.79 502.71C363.3 502.71 362.04 503.91 362.04 505.44C362.04 506.97 363.25 508.17 364.79 508.17C366.33 508.17 367.54 506.97 367.54 505.44C367.54 503.91 366.33 502.71 364.79 502.71ZM349.35 430.7C347.86 430.7 346.6 431.9 346.6 433.43C346.6 434.96 347.81 436.16 349.35 436.16C350.89 436.16 352.1 434.96 352.1 433.43C352.1 431.9 350.89 430.7 349.35 430.7ZM364.79 344.29C363.3 344.29 362.04 345.49 362.04 347.02C362.04 348.55 363.25 349.75 364.79 349.75C366.33 349.75 367.54 348.55 367.54 347.02C367.54 345.49 366.33 344.29 364.79 344.29ZM333.96 286.69C332.47 286.69 331.21 287.89 331.21 289.42C331.21 290.95 332.42 292.15 333.96 292.15C335.5 292.15 336.71 290.95 336.71 289.42C336.71 287.89 335.5 286.69 333.96 286.69ZM349.4 502.75C347.91 502.75 346.65 503.95 346.65 505.48C346.65 507.01 347.86 508.21 349.4 508.21C350.94 508.21 352.15 507.01 352.15 505.48C352.15 503.95 350.94 502.75 349.4 502.75ZM349.4 445.15C347.91 445.15 346.65 446.35 346.65 447.88C346.65 449.41 347.86 450.61 349.4 450.61C350.94 450.61 352.15 449.41 352.15 447.88C352.15 446.35 350.94 445.15 349.4 445.15ZM349.4 416.35C347.91 416.35 346.65 417.55 346.65 419.08C346.65 420.61 347.86 421.81 349.4 421.81C350.94 421.81 352.15 420.61 352.15 419.08C352.15 417.55 350.94 416.35 349.4 416.35ZM349.4 473.95C347.91 473.95 346.65 475.15 346.65 476.68C346.65 478.21 347.86 479.41 349.4 479.41C350.94 479.41 352.15 478.21 352.15 476.68C352.15 475.15 350.94 473.95 349.4 473.95ZM364.84 315.54C363.35 315.54 362.09 316.74 362.09 318.27C362.09 319.8 363.3 321 364.84 321C366.38 321 367.59 319.8 367.59 318.27C367.59 316.74 366.38 315.54 364.84 315.54ZM364.84 329.94C363.35 329.94 362.09 331.14 362.09 332.67C362.09 334.2 363.3 335.4 364.84 335.4C366.38 335.4 367.59 334.2 367.59 332.67C367.59 331.14 366.38 329.94 364.84 329.94ZM364.84 301.14C363.35 301.14 362.09 302.34 362.09 303.87C362.09 305.4 363.3 306.6 364.84 306.6C366.38 306.6 367.59 305.4 367.59 303.87C367.59 302.34 366.38 301.14 364.84 301.14ZM364.84 286.74C363.35 286.74 362.09 287.94 362.09 289.47C362.09 291 363.3 292.2 364.84 292.2C366.38 292.2 367.59 291 367.59 289.47C367.59 287.94 366.38 286.74 364.84 286.74ZM349.4 488.4C347.91 488.4 346.65 489.6 346.65 491.13C346.65 492.66 347.86 493.86 349.4 493.86C350.94 493.86 352.15 492.66 352.15 491.13C352.15 489.6 350.94 488.4 349.4 488.4ZM303.14 445.2C301.65 445.2 300.39 446.4 300.39 447.93C300.39 449.46 301.6 450.66 303.14 450.66C304.68 450.66 305.89 449.46 305.89 447.93C305.89 446.4 304.68 445.2 303.14 445.2ZM287.7 502.8C286.21 502.8 284.95 504 284.95 505.53C284.95 507.06 286.16 508.26 287.7 508.26C289.24 508.26 290.45 507.06 290.45 505.53C290.45 504 289.24 502.8 287.7 502.8ZM287.7 517.2C286.21 517.2 284.95 518.4 284.95 519.93C284.95 521.46 286.16 522.66 287.7 522.66C289.24 522.66 290.45 521.46 290.45 519.93C290.45 518.4 289.24 517.2 287.7 517.2ZM303.14 315.54C301.65 315.54 300.39 316.74 300.39 318.27C300.39 319.8 301.6 321 303.14 321C304.68 321 305.89 319.8 305.89 318.27C305.89 316.74 304.68 315.54 303.14 315.54ZM303.14 301.14C301.65 301.14 300.39 302.34 300.39 303.87C300.39 305.4 301.6 306.6 303.14 306.6C304.68 306.6 305.89 305.4 305.89 303.87C305.89 302.34 304.68 301.14 303.14 301.14ZM287.7 488.4C286.21 488.4 284.95 489.6 284.95 491.13C284.95 492.66 286.16 493.86 287.7 493.86C289.24 493.86 290.45 492.66 290.45 491.13C290.45 489.6 289.24 488.4 287.7 488.4ZM287.7 474C286.21 474 284.95 475.2 284.95 476.73C284.95 478.26 286.16 479.46 287.7 479.46C289.24 479.46 290.45 478.26 290.45 476.73C290.45 475.2 289.24 474 287.7 474ZM303.14 344.39C301.65 344.39 300.39 345.59 300.39 347.12C300.39 348.65 301.6 349.85 303.14 349.85C304.68 349.85 305.89 348.65 305.89 347.12C305.89 345.59 304.68 344.39 303.14 344.39ZM303.14 373.19C301.65 373.19 300.39 374.39 300.39 375.92C300.39 377.45 301.6 378.65 303.14 378.65C304.68 378.65 305.89 377.45 305.89 375.92C305.89 374.39 304.68 373.19 303.14 373.19ZM303.14 329.99C301.65 329.99 300.39 331.19 300.39 332.72C300.39 334.25 301.6 335.45 303.14 335.45C304.68 335.45 305.89 334.25 305.89 332.72C305.89 331.19 304.68 329.99 303.14 329.99ZM303.14 402C301.65 402 300.39 403.2 300.39 404.73C300.39 406.26 301.6 407.46 303.14 407.46C304.68 407.46 305.89 406.26 305.89 404.73C305.89 403.2 304.68 402 303.14 402ZM287.7 459.6C286.21 459.6 284.95 460.8 284.95 462.33C284.95 463.86 286.16 465.06 287.7 465.06C289.24 465.06 290.45 463.86 290.45 462.33C290.45 460.8 289.24 459.6 287.7 459.6ZM303.14 358.79C301.65 358.79 300.39 359.99 300.39 361.52C300.39 363.05 301.6 364.25 303.14 364.25C304.68 364.25 305.89 363.05 305.89 361.52C305.89 359.99 304.68 358.79 303.14 358.79ZM303.14 387.59C301.65 387.59 300.39 388.79 300.39 390.32C300.39 391.85 301.6 393.05 303.14 393.05C304.68 393.05 305.89 391.85 305.89 390.32C305.89 388.79 304.68 387.59 303.14 387.59ZM287.7 445.19C286.21 445.19 284.95 446.39 284.95 447.92C284.95 449.45 286.16 450.65 287.7 450.65C289.24 450.65 290.45 449.45 290.45 447.92C290.45 446.39 289.24 445.19 287.7 445.19ZM287.7 358.79C286.21 358.79 284.95 359.99 284.95 361.52C284.95 363.05 286.16 364.25 287.7 364.25C289.24 364.25 290.45 363.05 290.45 361.52C290.45 359.99 289.24 358.79 287.7 358.79ZM287.7 344.39C286.21 344.39 284.95 345.59 284.95 347.12C284.95 348.65 286.16 349.85 287.7 349.85C289.24 349.85 290.45 348.65 290.45 347.12C290.45 345.59 289.24 344.39 287.7 344.39ZM287.7 315.59C286.21 315.59 284.95 316.79 284.95 318.32C284.95 319.85 286.16 321.05 287.7 321.05C289.24 321.05 290.45 319.85 290.45 318.32C290.45 316.79 289.24 315.59 287.7 315.59ZM272.26 517.25C270.77 517.25 269.51 518.45 269.51 519.98C269.51 521.51 270.72 522.71 272.26 522.71C273.8 522.71 275.01 521.51 275.01 519.98C275.01 518.45 273.8 517.25 272.26 517.25ZM287.7 301.19C286.21 301.19 284.95 302.39 284.95 303.92C284.95 305.45 286.16 306.65 287.7 306.65C289.24 306.65 290.45 305.45 290.45 303.92C290.45 302.39 289.24 301.19 287.7 301.19ZM287.7 329.99C286.21 329.99 284.95 331.19 284.95 332.72C284.95 334.25 286.16 335.45 287.7 335.45C289.24 335.45 290.45 334.25 290.45 332.72C290.45 331.19 289.24 329.99 287.7 329.99ZM287.7 416.4C286.21 416.4 284.95 417.6 284.95 419.13C284.95 420.66 286.16 421.86 287.7 421.86C289.24 421.86 290.45 420.66 290.45 419.13C290.45 417.6 289.24 416.4 287.7 416.4ZM179.74 517.21C178.25 517.21 176.99 518.41 176.99 519.94C176.99 521.47 178.2 522.67 179.74 522.67C181.28 522.67 182.49 521.47 182.49 519.94C182.49 518.41 181.28 517.21 179.74 517.21ZM287.7 373.2C286.21 373.2 284.95 374.4 284.95 375.93C284.95 377.46 286.16 378.66 287.7 378.66C289.24 378.66 290.45 377.46 290.45 375.93C290.45 374.4 289.24 373.2 287.7 373.2ZM287.7 387.6C286.21 387.6 284.95 388.8 284.95 390.33C284.95 391.86 286.16 393.06 287.7 393.06C289.24 393.06 290.45 391.86 290.45 390.33C290.45 388.8 289.24 387.6 287.7 387.6ZM287.7 402C286.21 402 284.95 403.2 284.95 404.73C284.95 406.26 286.16 407.46 287.7 407.46C289.24 407.46 290.45 406.26 290.45 404.73C290.45 403.2 289.24 402 287.7 402ZM303.14 488.4C301.65 488.4 300.39 489.6 300.39 491.13C300.39 492.66 301.6 493.86 303.14 493.86C304.68 493.86 305.89 492.66 305.89 491.13C305.89 489.6 304.68 488.4 303.14 488.4ZM318.58 445.2C317.09 445.2 315.83 446.4 315.83 447.93C315.83 449.46 317.04 450.66 318.58 450.66C320.12 450.66 321.33 449.46 321.33 447.93C321.33 446.4 320.12 445.2 318.58 445.2ZM318.58 430.8C317.09 430.8 315.83 432 315.83 433.53C315.83 435.06 317.04 436.26 318.58 436.26C320.12 436.26 321.33 435.06 321.33 433.53C321.33 432 320.12 430.8 318.58 430.8ZM318.58 402C317.09 402 315.83 403.2 315.83 404.73C315.83 406.26 317.04 407.46 318.58 407.46C320.12 407.46 321.33 406.26 321.33 404.73C321.33 403.2 320.12 402 318.58 402ZM318.58 416.4C317.09 416.4 315.83 417.6 315.83 419.13C315.83 420.66 317.04 421.86 318.58 421.86C320.12 421.86 321.33 420.66 321.33 419.13C321.33 417.6 320.12 416.4 318.58 416.4ZM318.58 373.2C317.09 373.2 315.83 374.4 315.83 375.93C315.83 377.46 317.04 378.66 318.58 378.66C320.12 378.66 321.33 377.46 321.33 375.93C321.33 374.4 320.12 373.2 318.58 373.2ZM318.58 387.6C317.09 387.6 315.83 388.8 315.83 390.33C315.83 391.86 317.04 393.06 318.58 393.06C320.12 393.06 321.33 391.86 321.33 390.33C321.33 388.8 320.12 387.6 318.58 387.6ZM318.58 502.81C317.09 502.81 315.83 504.01 315.83 505.54C315.83 507.07 317.04 508.27 318.58 508.27C320.12 508.27 321.33 507.07 321.33 505.54C321.33 504.01 320.12 502.81 318.58 502.81ZM318.58 517.21C317.09 517.21 315.83 518.41 315.83 519.94C315.83 521.47 317.04 522.67 318.58 522.67C320.12 522.67 321.33 521.47 321.33 519.94C321.33 518.41 320.12 517.21 318.58 517.21ZM318.58 358.8C317.09 358.8 315.83 360 315.83 361.53C315.83 363.06 317.04 364.26 318.58 364.26C320.12 364.26 321.33 363.06 321.33 361.53C321.33 360 320.12 358.8 318.58 358.8ZM318.58 474.01C317.09 474.01 315.83 475.21 315.83 476.74C315.83 478.27 317.04 479.47 318.58 479.47C320.12 479.47 321.33 478.27 321.33 476.74C321.33 475.21 320.12 474.01 318.58 474.01ZM318.58 488.41C317.09 488.41 315.83 489.61 315.83 491.14C315.83 492.67 317.04 493.87 318.58 493.87C320.12 493.87 321.33 492.67 321.33 491.14C321.33 489.61 320.12 488.41 318.58 488.41ZM318.58 459.61C317.09 459.61 315.83 460.81 315.83 462.34C315.83 463.87 317.04 465.07 318.58 465.07C320.12 465.07 321.33 463.87 321.33 462.34C321.33 460.81 320.12 459.61 318.58 459.61ZM318.58 344.4C317.09 344.4 315.83 345.6 315.83 347.13C315.83 348.66 317.04 349.86 318.58 349.86C320.12 349.86 321.33 348.66 321.33 347.13C321.33 345.6 320.12 344.4 318.58 344.4ZM303.14 474.01C301.65 474.01 300.39 475.21 300.39 476.74C300.39 478.27 301.6 479.47 303.14 479.47C304.68 479.47 305.89 478.27 305.89 476.74C305.89 475.21 304.68 474.01 303.14 474.01ZM303.14 459.61C301.65 459.61 300.39 460.81 300.39 462.34C300.39 463.87 301.6 465.07 303.14 465.07C304.68 465.07 305.89 463.87 305.89 462.34C305.89 460.81 304.68 459.61 303.14 459.61ZM303.14 416.41C301.65 416.41 300.39 417.61 300.39 419.14C300.39 420.67 301.6 421.87 303.14 421.87C304.68 421.87 305.89 420.67 305.89 419.14C305.89 417.61 304.68 416.41 303.14 416.41ZM303.14 430.81C301.65 430.81 300.39 432.01 300.39 433.54C300.39 435.07 301.6 436.27 303.14 436.27C304.68 436.27 305.89 435.07 305.89 433.54C305.89 432.01 304.68 430.81 303.14 430.81ZM272.31 531.62C270.82 531.62 269.56 532.82 269.56 534.35C269.56 535.88 270.77 537.08 272.31 537.08C273.85 537.08 275.06 535.88 275.06 534.35C275.06 532.82 273.85 531.62 272.31 531.62ZM318.57 315.56C317.08 315.56 315.82 316.76 315.82 318.29C315.82 319.82 317.03 321.02 318.57 321.02C320.11 321.02 321.32 319.82 321.32 318.29C321.32 316.76 320.11 315.56 318.57 315.56ZM318.57 329.96C317.08 329.96 315.82 331.16 315.82 332.69C315.82 334.22 317.03 335.42 318.57 335.42C320.11 335.42 321.32 334.22 321.32 332.69C321.32 331.16 320.11 329.96 318.57 329.96ZM303.13 502.82C301.64 502.82 300.38 504.02 300.38 505.55C300.38 507.08 301.59 508.28 303.13 508.28C304.67 508.28 305.88 507.08 305.88 505.55C305.88 504.02 304.67 502.82 303.13 502.82ZM303.13 517.22C301.64 517.22 300.38 518.42 300.38 519.95C300.38 521.48 301.59 522.68 303.13 522.68C304.67 522.68 305.88 521.48 305.88 519.95C305.88 518.42 304.67 517.22 303.13 517.22ZM318.57 301.16C317.08 301.16 315.82 302.36 315.82 303.89C315.82 305.42 317.03 306.62 318.57 306.62C320.11 306.62 321.32 305.42 321.32 303.89C321.32 302.36 320.11 301.16 318.57 301.16ZM133.43 574.69C131.94 574.69 130.68 575.89 130.68 577.42C130.68 578.95 131.89 580.15 133.43 580.15C134.97 580.15 136.18 578.95 136.18 577.42C136.18 575.89 134.97 574.69 133.43 574.69ZM56.29 488.28C54.8 488.28 53.54 489.48 53.54 491.01C53.54 492.54 54.75 493.74 56.29 493.74C57.83 493.74 59.04 492.54 59.04 491.01C59.04 489.48 57.83 488.28 56.29 488.28ZM56.29 502.68C54.8 502.68 53.54 503.88 53.54 505.41C53.54 506.94 54.75 508.14 56.29 508.14C57.83 508.14 59.04 506.94 59.04 505.41C59.04 503.88 57.83 502.68 56.29 502.68ZM56.29 517.08C54.8 517.08 53.54 518.28 53.54 519.81C53.54 521.34 54.75 522.54 56.29 522.54C57.83 522.54 59.04 521.34 59.04 519.81C59.04 518.28 57.83 517.08 56.29 517.08ZM56.29 473.88C54.8 473.88 53.54 475.08 53.54 476.61C53.54 478.14 54.75 479.34 56.29 479.34C57.83 479.34 59.04 478.14 59.04 476.61C59.04 475.08 57.83 473.88 56.29 473.88ZM56.29 531.48C54.8 531.48 53.54 532.68 53.54 534.21C53.54 535.74 54.75 536.94 56.29 536.94C57.83 536.94 59.04 535.74 59.04 534.21C59.04 532.68 57.83 531.48 56.29 531.48ZM56.29 459.47C54.8 459.47 53.54 460.67 53.54 462.2C53.54 463.73 54.75 464.93 56.29 464.93C57.83 464.93 59.04 463.73 59.04 462.2C59.04 460.67 57.83 459.47 56.29 459.47ZM40.85 517.07C39.36 517.07 38.1 518.27 38.1 519.8C38.1 521.33 39.31 522.53 40.85 522.53C42.39 522.53 43.6 521.33 43.6 519.8C43.6 518.27 42.39 517.07 40.85 517.07ZM56.29 589.08C54.8 589.08 53.54 590.28 53.54 591.81C53.54 593.34 54.75 594.54 56.29 594.54C57.83 594.54 59.04 593.34 59.04 591.81C59.04 590.28 57.83 589.08 56.29 589.08ZM56.29 445.07C54.8 445.07 53.54 446.27 53.54 447.8C53.54 449.33 54.75 450.53 56.29 450.53C57.83 450.53 59.04 449.33 59.04 447.8C59.04 446.27 57.83 445.07 56.29 445.07ZM56.29 545.88C54.8 545.88 53.54 547.08 53.54 548.61C53.54 550.14 54.75 551.34 56.29 551.34C57.83 551.34 59.04 550.14 59.04 548.61C59.04 547.08 57.83 545.88 56.29 545.88ZM56.29 574.68C54.8 574.68 53.54 575.88 53.54 577.41C53.54 578.94 54.75 580.14 56.29 580.14C57.83 580.14 59.04 578.94 59.04 577.41C59.04 575.88 57.83 574.68 56.29 574.68ZM56.29 560.28C54.8 560.28 53.54 561.48 53.54 563.01C53.54 564.54 54.75 565.74 56.29 565.74C57.83 565.74 59.04 564.54 59.04 563.01C59.04 561.48 57.83 560.28 56.29 560.28ZM40.85 617.88C39.36 617.88 38.1 619.08 38.1 620.61C38.1 622.14 39.31 623.34 40.85 623.34C42.39 623.34 43.6 622.14 43.6 620.61C43.6 619.08 42.39 617.88 40.85 617.88ZM40.85 574.68C39.36 574.68 38.1 575.88 38.1 577.41C38.1 578.94 39.31 580.14 40.85 580.14C42.39 580.14 43.6 578.94 43.6 577.41C43.6 575.88 42.39 574.68 40.85 574.68ZM40.85 560.28C39.36 560.28 38.1 561.48 38.1 563.01C38.1 564.54 39.31 565.74 40.85 565.74C42.39 565.74 43.6 564.54 43.6 563.01C43.6 561.48 42.39 560.28 40.85 560.28ZM40.85 589.08C39.36 589.08 38.1 590.28 38.1 591.81C38.1 593.34 39.31 594.54 40.85 594.54C42.39 594.54 43.6 593.34 43.6 591.81C43.6 590.28 42.39 589.08 40.85 589.08ZM40.85 531.48C39.36 531.48 38.1 532.68 38.1 534.21C38.1 535.74 39.31 536.94 40.85 536.94C42.39 536.94 43.6 535.74 43.6 534.21C43.6 532.68 42.39 531.48 40.85 531.48ZM40.85 545.88C39.36 545.88 38.1 547.08 38.1 548.61C38.1 550.14 39.31 551.34 40.85 551.34C42.39 551.34 43.6 550.14 43.6 548.61C43.6 547.08 42.39 545.88 40.85 545.88ZM56.29 401.87C54.8 401.87 53.54 403.07 53.54 404.6C53.54 406.13 54.75 407.33 56.29 407.33C57.83 407.33 59.04 406.13 59.04 404.6C59.04 403.07 57.83 401.87 56.29 401.87ZM56.29 416.27C54.8 416.27 53.54 417.47 53.54 419C53.54 420.53 54.75 421.73 56.29 421.73C57.83 421.73 59.04 420.53 59.04 419C59.04 417.47 57.83 416.27 56.29 416.27ZM56.29 430.67C54.8 430.67 53.54 431.87 53.54 433.4C53.54 434.93 54.75 436.13 56.29 436.13C57.83 436.13 59.04 434.93 59.04 433.4C59.04 431.87 57.83 430.67 56.29 430.67ZM40.85 603.53C39.36 603.53 38.1 604.73 38.1 606.26C38.1 607.79 39.31 608.99 40.85 608.99C42.39 608.99 43.6 607.79 43.6 606.26C43.6 604.73 42.39 603.53 40.85 603.53ZM56.29 387.47C54.8 387.47 53.54 388.67 53.54 390.2C53.54 391.73 54.75 392.93 56.29 392.93C57.83 392.93 59.04 391.73 59.04 390.2C59.04 388.67 57.83 387.47 56.29 387.47ZM56.29 603.53C54.8 603.53 53.54 604.73 53.54 606.26C53.54 607.79 54.75 608.99 56.29 608.99C57.83 608.99 59.04 607.79 59.04 606.26C59.04 604.73 57.83 603.53 56.29 603.53ZM71.73 589.13C70.24 589.13 68.98 590.33 68.98 591.86C68.98 593.39 70.19 594.59 71.73 594.59C73.27 594.59 74.48 593.39 74.48 591.86C74.48 590.33 73.27 589.13 71.73 589.13ZM87.17 373.07C85.68 373.07 84.42 374.27 84.42 375.8C84.42 377.33 85.63 378.53 87.17 378.53C88.71 378.53 89.92 377.33 89.92 375.8C89.92 374.27 88.71 373.07 87.17 373.07ZM87.17 387.47C85.68 387.47 84.42 388.67 84.42 390.2C84.42 391.73 85.63 392.93 87.17 392.93C88.71 392.93 89.92 391.73 89.92 390.2C89.92 388.67 88.71 387.47 87.17 387.47ZM71.73 387.47C70.24 387.47 68.98 388.67 68.98 390.2C68.98 391.73 70.19 392.93 71.73 392.93C73.27 392.93 74.48 391.73 74.48 390.2C74.48 388.67 73.27 387.47 71.73 387.47ZM71.73 603.53C70.24 603.53 68.98 604.73 68.98 606.26C68.98 607.79 70.19 608.99 71.73 608.99C73.27 608.99 74.48 607.79 74.48 606.26C74.48 604.73 73.27 603.53 71.73 603.53ZM71.73 574.73C70.24 574.73 68.98 575.93 68.98 577.46C68.98 578.99 70.19 580.19 71.73 580.19C73.27 580.19 74.48 578.99 74.48 577.46C74.48 575.93 73.27 574.73 71.73 574.73ZM87.17 430.72C85.68 430.72 84.42 431.92 84.42 433.45C84.42 434.98 85.63 436.18 87.17 436.18C88.71 436.18 89.92 434.98 89.92 433.45C89.92 431.92 88.71 430.72 87.17 430.72ZM87.17 473.92C85.68 473.92 84.42 475.12 84.42 476.65C84.42 478.18 85.63 479.38 87.17 479.38C88.71 479.38 89.92 478.18 89.92 476.65C89.92 475.12 88.71 473.92 87.17 473.92ZM87.17 459.52C85.68 459.52 84.42 460.72 84.42 462.25C84.42 463.78 85.63 464.98 87.17 464.98C88.71 464.98 89.92 463.78 89.92 462.25C89.92 460.72 88.71 459.52 87.17 459.52ZM87.17 416.32C85.68 416.32 84.42 417.52 84.42 419.05C84.42 420.58 85.63 421.78 87.17 421.78C88.71 421.78 89.92 420.58 89.92 419.05C89.92 417.52 88.71 416.32 87.17 416.32ZM87.17 445.12C85.68 445.12 84.42 446.32 84.42 447.85C84.42 449.38 85.63 450.58 87.17 450.58C88.71 450.58 89.92 449.38 89.92 447.85C89.92 446.32 88.71 445.12 87.17 445.12ZM71.73 560.33C70.24 560.33 68.98 561.53 68.98 563.06C68.98 564.59 70.19 565.79 71.73 565.79C73.27 565.79 74.48 564.59 74.48 563.06C74.48 561.53 73.27 560.33 71.73 560.33ZM87.17 401.92C85.68 401.92 84.42 403.12 84.42 404.65C84.42 406.18 85.63 407.38 87.17 407.38C88.71 407.38 89.92 406.18 89.92 404.65C89.92 403.12 88.71 401.92 87.17 401.92ZM71.73 430.72C70.24 430.72 68.98 431.92 68.98 433.45C68.98 434.98 70.19 436.18 71.73 436.18C73.27 436.18 74.48 434.98 74.48 433.45C74.48 431.92 73.27 430.72 71.73 430.72ZM71.73 459.52C70.24 459.52 68.98 460.72 68.98 462.25C68.98 463.78 70.19 464.98 71.73 464.98C73.27 464.98 74.48 463.78 74.48 462.25C74.48 460.72 73.27 459.52 71.73 459.52ZM71.73 445.12C70.24 445.12 68.98 446.32 68.98 447.85C68.98 449.38 70.19 450.58 71.73 450.58C73.27 450.58 74.48 449.38 74.48 447.85C74.48 446.32 73.27 445.12 71.73 445.12ZM71.73 416.32C70.24 416.32 68.98 417.52 68.98 419.05C68.98 420.58 70.19 421.78 71.73 421.78C73.27 421.78 74.48 420.58 74.48 419.05C74.48 417.52 73.27 416.32 71.73 416.32ZM71.73 401.92C70.24 401.92 68.98 403.12 68.98 404.65C68.98 406.18 70.19 407.38 71.73 407.38C73.27 407.38 74.48 406.18 74.48 404.65C74.48 403.12 73.27 401.92 71.73 401.92ZM71.73 473.93C70.24 473.93 68.98 475.13 68.98 476.66C68.98 478.19 70.19 479.39 71.73 479.39C73.27 479.39 74.48 478.19 74.48 476.66C74.48 475.13 73.27 473.93 71.73 473.93ZM71.73 517.13C70.24 517.13 68.98 518.33 68.98 519.86C68.98 521.39 70.19 522.59 71.73 522.59C73.27 522.59 74.48 521.39 74.48 519.86C74.48 518.33 73.27 517.13 71.73 517.13ZM71.73 545.93C70.24 545.93 68.98 547.13 68.98 548.66C68.98 550.19 70.19 551.39 71.73 551.39C73.27 551.39 74.48 550.19 74.48 548.66C74.48 547.13 73.27 545.93 71.73 545.93ZM71.73 531.53C70.24 531.53 68.98 532.73 68.98 534.26C68.98 535.79 70.19 536.99 71.73 536.99C73.27 536.99 74.48 535.79 74.48 534.26C74.48 532.73 73.27 531.53 71.73 531.53ZM71.73 488.33C70.24 488.33 68.98 489.53 68.98 491.06C68.98 492.59 70.19 493.79 71.73 493.79C73.27 493.79 74.48 492.59 74.48 491.06C74.48 489.53 73.27 488.33 71.73 488.33ZM71.73 502.73C70.24 502.73 68.98 503.93 68.98 505.46C68.98 506.99 70.19 508.19 71.73 508.19C73.27 508.19 74.48 506.99 74.48 505.46C74.48 503.93 73.27 502.73 71.73 502.73ZM25.47 531.53C23.98 531.53 22.72 532.73 22.72 534.26C22.72 535.79 23.93 536.99 25.47 536.99C27.01 536.99 28.22 535.79 28.22 534.26C28.22 532.73 27.01 531.53 25.47 531.53ZM179.69 502.73C178.2 502.73 176.94 503.93 176.94 505.46C176.94 506.99 178.15 508.19 179.69 508.19C181.23 508.19 182.44 506.99 182.44 505.46C182.44 503.93 181.23 502.73 179.69 502.73ZM290.4 534.26C290.4 532.78 289.19 531.53 287.65 531.53C286.11 531.53 284.9 532.73 284.9 534.26C284.9 535.79 286.11 536.99 287.65 536.99H287.79L289.33 536.44C289.98 535.93 290.4 535.14 290.4 534.26ZM210.56 560.33C209.07 560.33 207.81 561.53 207.81 563.06C207.81 564.03 208.32 564.91 209.16 565.38L213.17 563.95C213.26 563.67 213.31 563.39 213.31 563.07C213.31 561.59 212.1 560.34 210.56 560.34V560.33ZM133.43 589.13C131.94 589.13 130.68 590.33 130.68 591.86C130.68 592.51 130.91 593.06 131.24 593.53L136.14 591.77C136.09 590.34 134.88 589.13 133.39 589.13H133.44H133.43ZM25.47 617.93C23.98 617.93 22.72 619.13 22.72 620.66C22.72 622.19 23.93 623.39 25.47 623.39C27.01 623.39 28.22 622.19 28.22 620.66C28.22 619.13 27.01 617.93 25.47 617.93ZM25.47 603.53C23.98 603.53 22.72 604.73 22.72 606.26C22.72 607.79 23.93 608.99 25.47 608.99C27.01 608.99 28.22 607.79 28.22 606.26C28.22 604.73 27.01 603.53 25.47 603.53ZM40.91 401.87C39.42 401.87 38.16 403.07 38.16 404.6C38.16 406.13 39.37 407.33 40.91 407.33C42.45 407.33 43.66 406.13 43.66 404.6C43.66 403.07 42.45 401.87 40.91 401.87ZM40.91 502.68C39.42 502.68 38.16 503.88 38.16 505.41C38.16 506.94 39.37 508.14 40.91 508.14C42.45 508.14 43.66 506.94 43.66 505.41C43.66 503.88 42.45 502.68 40.91 502.68ZM40.91 416.28C39.42 416.28 38.16 417.48 38.16 419.01C38.16 420.54 39.37 421.74 40.91 421.74C42.45 421.74 43.66 420.54 43.66 419.01C43.66 417.48 42.45 416.28 40.91 416.28ZM25.47 574.69C23.98 574.69 22.72 575.89 22.72 577.42C22.72 578.95 23.93 580.15 25.47 580.15C27.01 580.15 28.22 578.95 28.22 577.42C28.22 575.89 27.01 574.69 25.47 574.69ZM25.47 589.09C23.98 589.09 22.72 590.29 22.72 591.82C22.72 593.35 23.93 594.55 25.47 594.55C27.01 594.55 28.22 593.35 28.22 591.82C28.22 590.29 27.01 589.09 25.47 589.09ZM40.91 488.28C39.42 488.28 38.16 489.48 38.16 491.01C38.16 492.54 39.37 493.74 40.91 493.74C42.45 493.74 43.66 492.54 43.66 491.01C43.66 489.48 42.45 488.28 40.91 488.28ZM40.91 430.68C39.42 430.68 38.16 431.88 38.16 433.41C38.16 434.94 39.37 436.14 40.91 436.14C42.45 436.14 43.66 434.94 43.66 433.41C43.66 431.88 42.45 430.68 40.91 430.68ZM40.91 473.88C39.42 473.88 38.16 475.08 38.16 476.61C38.16 478.14 39.37 479.34 40.91 479.34C42.45 479.34 43.66 478.14 43.66 476.61C43.66 475.08 42.45 473.88 40.91 473.88ZM25.47 560.29C23.98 560.29 22.72 561.49 22.72 563.02C22.72 564.55 23.93 565.75 25.47 565.75C27.01 565.75 28.22 564.55 28.22 563.02C28.22 561.49 27.01 560.29 25.47 560.29ZM40.91 459.48C39.42 459.48 38.16 460.68 38.16 462.21C38.16 463.74 39.37 464.94 40.91 464.94C42.45 464.94 43.66 463.74 43.66 462.21C43.66 460.68 42.45 459.48 40.91 459.48ZM40.91 445.08C39.42 445.08 38.16 446.28 38.16 447.81C38.16 449.34 39.37 450.54 40.91 450.54C42.45 450.54 43.66 449.34 43.66 447.81C43.66 446.28 42.45 445.08 40.91 445.08ZM87.17 488.28C85.68 488.28 84.42 489.48 84.42 491.01C84.42 492.54 85.63 493.74 87.17 493.74C88.71 493.74 89.92 492.54 89.92 491.01C89.92 489.48 88.71 488.28 87.17 488.28ZM25.47 430.68C23.98 430.68 22.72 431.88 22.72 433.41C22.72 434.94 23.93 436.14 25.47 436.14C27.01 436.14 28.22 434.94 28.22 433.41C28.22 431.88 27.01 430.68 25.47 430.68ZM25.47 459.48C23.98 459.48 22.72 460.68 22.72 462.21C22.72 463.74 23.93 464.94 25.47 464.94C27.01 464.94 28.22 463.74 28.22 462.21C28.22 460.68 27.01 459.48 25.47 459.48ZM25.47 445.08C23.98 445.08 22.72 446.28 22.72 447.81C22.72 449.34 23.93 450.54 25.47 450.54C27.01 450.54 28.22 449.34 28.22 447.81C28.22 446.28 27.01 445.08 25.47 445.08ZM25.47 401.88C23.98 401.88 22.72 403.08 22.72 404.61C22.72 406.14 23.93 407.34 25.47 407.34C27.01 407.34 28.22 406.14 28.22 404.61C28.22 403.08 27.01 401.88 25.47 401.88ZM25.47 416.28C23.98 416.28 22.72 417.48 22.72 419.01C22.72 420.54 23.93 421.74 25.47 421.74C27.01 421.74 28.22 420.54 28.22 419.01C28.22 417.48 27.01 416.28 25.47 416.28ZM25.47 545.89C23.98 545.89 22.72 547.09 22.72 548.62C22.72 550.15 23.93 551.35 25.47 551.35C27.01 551.35 28.22 550.15 28.22 548.62C28.22 547.09 27.01 545.89 25.47 545.89ZM25.47 517.09C23.98 517.09 22.72 518.29 22.72 519.82C22.72 521.35 23.93 522.55 25.47 522.55C27.01 522.55 28.22 521.35 28.22 519.82C28.22 518.29 27.01 517.09 25.47 517.09ZM25.47 473.89C23.98 473.89 22.72 475.09 22.72 476.62C22.72 478.15 23.93 479.35 25.47 479.35C27.01 479.35 28.22 478.15 28.22 476.62C28.22 475.09 27.01 473.89 25.47 473.89ZM25.47 502.69C23.98 502.69 22.72 503.89 22.72 505.42C22.72 506.95 23.93 508.15 25.47 508.15C27.01 508.15 28.22 506.95 28.22 505.42C28.22 503.89 27.01 502.69 25.47 502.69ZM25.47 488.29C23.98 488.29 22.72 489.49 22.72 491.02C22.72 492.55 23.93 493.75 25.47 493.75C27.01 493.75 28.22 492.55 28.22 491.02C28.22 489.49 27.01 488.29 25.47 488.29ZM148.87 517.09C147.38 517.09 146.12 518.29 146.12 519.82C146.12 521.35 147.33 522.55 148.87 522.55C150.41 522.55 151.62 521.35 151.62 519.82C151.62 518.29 150.41 517.09 148.87 517.09ZM133.43 488.29C131.94 488.29 130.68 489.49 130.68 491.02C130.68 492.55 131.89 493.75 133.43 493.75C134.97 493.75 136.18 492.55 136.18 491.02C136.18 489.49 134.97 488.29 133.43 488.29ZM148.87 502.69C147.38 502.69 146.12 503.89 146.12 505.42C146.12 506.95 147.33 508.15 148.87 508.15C150.41 508.15 151.62 506.95 151.62 505.42C151.62 503.89 150.41 502.69 148.87 502.69ZM148.87 473.89C147.38 473.89 146.12 475.09 146.12 476.62C146.12 478.15 147.33 479.35 148.87 479.35C150.41 479.35 151.62 478.15 151.62 476.62C151.62 475.09 150.41 473.89 148.87 473.89ZM148.87 488.29C147.38 488.29 146.12 489.49 146.12 491.02C146.12 492.55 147.33 493.75 148.87 493.75C150.41 493.75 151.62 492.55 151.62 491.02C151.62 489.49 150.41 488.29 148.87 488.29ZM148.87 545.89C147.38 545.89 146.12 547.09 146.12 548.62C146.12 550.15 147.33 551.35 148.87 551.35C150.41 551.35 151.62 550.15 151.62 548.62C151.62 547.09 150.41 545.89 148.87 545.89ZM148.87 531.49C147.38 531.49 146.12 532.69 146.12 534.22C146.12 535.75 147.33 536.95 148.87 536.95C150.41 536.95 151.62 535.75 151.62 534.22C151.62 532.69 150.41 531.49 148.87 531.49ZM148.87 574.69C147.38 574.69 146.12 575.89 146.12 577.42C146.12 578.95 147.33 580.15 148.87 580.15C150.41 580.15 151.62 578.95 151.62 577.42C151.62 575.89 150.41 574.69 148.87 574.69ZM164.31 387.43C162.82 387.43 161.56 388.63 161.56 390.16C161.56 391.69 162.77 392.89 164.31 392.89C165.85 392.89 167.06 391.69 167.06 390.16C167.06 388.63 165.85 387.43 164.31 387.43ZM164.31 373.03C162.82 373.03 161.56 374.23 161.56 375.76C161.56 377.29 162.77 378.49 164.31 378.49C165.85 378.49 167.06 377.29 167.06 375.76C167.06 374.23 165.85 373.03 164.31 373.03ZM148.87 560.29C147.38 560.29 146.12 561.49 146.12 563.02C146.12 564.55 147.33 565.75 148.87 565.75C150.41 565.75 151.62 564.55 151.62 563.02C151.62 561.49 150.41 560.29 148.87 560.29ZM164.31 358.63C162.82 358.63 161.56 359.83 161.56 361.36C161.56 362.89 162.77 364.09 164.31 364.09C165.85 364.09 167.06 362.89 167.06 361.36C167.06 359.83 165.85 358.63 164.31 358.63ZM133.48 531.49C131.99 531.49 130.73 532.69 130.73 534.22C130.73 535.75 131.94 536.95 133.48 536.95C135.02 536.95 136.23 535.75 136.23 534.22C136.23 532.69 135.02 531.49 133.48 531.49ZM133.48 545.89C131.99 545.89 130.73 547.09 130.73 548.62C130.73 550.15 131.94 551.35 133.48 551.35C135.02 551.35 136.23 550.15 136.23 548.62C136.23 547.09 135.02 545.89 133.48 545.89ZM148.92 358.63C147.43 358.63 146.17 359.83 146.17 361.36C146.17 362.89 147.38 364.09 148.92 364.09C150.46 364.09 151.67 362.89 151.67 361.36C151.67 359.83 150.46 358.63 148.92 358.63ZM133.48 560.29C131.99 560.29 130.73 561.49 130.73 563.02C130.73 564.55 131.94 565.75 133.48 565.75C135.02 565.75 136.23 564.55 136.23 563.02C136.23 561.49 135.02 560.29 133.48 560.29ZM164.31 401.88C162.82 401.88 161.56 403.08 161.56 404.61C161.56 406.14 162.77 407.34 164.31 407.34C165.85 407.34 167.06 406.14 167.06 404.61C167.06 403.08 165.85 401.88 164.31 401.88ZM133.48 517.09C131.99 517.09 130.73 518.29 130.73 519.82C130.73 521.35 131.94 522.55 133.48 522.55C135.02 522.55 136.23 521.35 136.23 519.82C136.23 518.29 135.02 517.09 133.48 517.09ZM133.48 502.69C131.99 502.69 130.73 503.89 130.73 505.42C130.73 506.95 131.94 508.15 133.48 508.15C135.02 508.15 136.23 506.95 136.23 505.42C136.23 503.89 135.02 502.69 133.48 502.69ZM148.92 430.69C147.43 430.69 146.17 431.89 146.17 433.42C146.17 434.95 147.38 436.15 148.92 436.15C150.46 436.15 151.67 434.95 151.67 433.42C151.67 431.89 150.46 430.69 148.92 430.69ZM148.92 416.29C147.43 416.29 146.17 417.49 146.17 419.02C146.17 420.55 147.38 421.75 148.92 421.75C150.46 421.75 151.67 420.55 151.67 419.02C151.67 417.49 150.46 416.29 148.92 416.29ZM148.92 445.09C147.43 445.09 146.17 446.29 146.17 447.82C146.17 449.35 147.38 450.55 148.92 450.55C150.46 450.55 151.67 449.35 151.67 447.82C151.67 446.29 150.46 445.09 148.92 445.09ZM148.92 373.08C147.43 373.08 146.17 374.28 146.17 375.81C146.17 377.34 147.38 378.54 148.92 378.54C150.46 378.54 151.67 377.34 151.67 375.81C151.67 374.28 150.46 373.08 148.92 373.08ZM148.92 401.88C147.43 401.88 146.17 403.08 146.17 404.61C146.17 406.14 147.38 407.34 148.92 407.34C150.46 407.34 151.67 406.14 151.67 404.61C151.67 403.08 150.46 401.88 148.92 401.88ZM148.92 387.48C147.43 387.48 146.17 388.68 146.17 390.21C146.17 391.74 147.38 392.94 148.92 392.94C150.46 392.94 151.67 391.74 151.67 390.21C151.67 388.68 150.46 387.48 148.92 387.48ZM87.22 502.69C85.73 502.69 84.47 503.89 84.47 505.42C84.47 506.95 85.68 508.15 87.22 508.15C88.76 508.15 89.97 506.95 89.97 505.42C89.97 503.89 88.76 502.69 87.22 502.69ZM179.74 373.08C178.25 373.08 176.99 374.28 176.99 375.81C176.99 377.34 178.2 378.54 179.74 378.54C181.28 378.54 182.49 377.34 182.49 375.81C182.49 374.28 181.28 373.08 179.74 373.08ZM164.3 416.28C162.81 416.28 161.55 417.48 161.55 419.01C161.55 420.54 162.76 421.74 164.3 421.74C165.84 421.74 167.05 420.54 167.05 419.01C167.05 417.48 165.84 416.28 164.3 416.28ZM179.74 401.88C178.25 401.88 176.99 403.08 176.99 404.61C176.99 406.14 178.2 407.34 179.74 407.34C181.28 407.34 182.49 406.14 182.49 404.61C182.49 403.08 181.28 401.88 179.74 401.88ZM179.74 387.48C178.25 387.48 176.99 388.68 176.99 390.21C176.99 391.74 178.2 392.94 179.74 392.94C181.28 392.94 182.49 391.74 182.49 390.21C182.49 388.68 181.28 387.48 179.74 387.48ZM179.74 344.28C178.25 344.28 176.99 345.48 176.99 347.01C176.99 348.54 178.2 349.74 179.74 349.74C181.28 349.74 182.49 348.54 182.49 347.01C182.49 345.48 181.28 344.28 179.74 344.28ZM164.3 349.74C165.79 349.74 167.05 348.54 167.05 347.01C167.05 345.81 166.26 344.79 165.14 344.42L161.97 345.58C161.69 346 161.55 346.51 161.55 347.01C161.55 348.49 162.76 349.74 164.3 349.74ZM179.74 358.68C178.25 358.68 176.99 359.88 176.99 361.41C176.99 362.94 178.2 364.14 179.74 364.14C181.28 364.14 182.49 362.94 182.49 361.41C182.49 359.88 181.28 358.68 179.74 358.68ZM179.74 473.89C178.25 473.89 176.99 475.09 176.99 476.62C176.99 478.15 178.2 479.35 179.74 479.35C181.28 479.35 182.49 478.15 182.49 476.62C182.49 475.09 181.28 473.89 179.74 473.89ZM179.74 488.29C178.25 488.29 176.99 489.49 176.99 491.02C176.99 492.55 178.2 493.75 179.74 493.75C181.28 493.75 182.49 492.55 182.49 491.02C182.49 489.49 181.28 488.29 179.74 488.29ZM179.74 445.09C178.25 445.09 176.99 446.29 176.99 447.82C176.99 449.35 178.2 450.55 179.74 450.55C181.28 450.55 182.49 449.35 182.49 447.82C182.49 446.29 181.28 445.09 179.74 445.09ZM179.74 430.69C178.25 430.69 176.99 431.89 176.99 433.42C176.99 434.95 178.2 436.15 179.74 436.15C181.28 436.15 182.49 434.95 182.49 433.42C182.49 431.89 181.28 430.69 179.74 430.69ZM179.74 459.49C178.25 459.49 176.99 460.69 176.99 462.22C176.99 463.75 178.2 464.95 179.74 464.95C181.28 464.95 182.49 463.75 182.49 462.22C182.49 460.69 181.28 459.49 179.74 459.49ZM179.74 416.29C178.25 416.29 176.99 417.49 176.99 419.02C176.99 420.55 178.2 421.75 179.74 421.75C181.28 421.75 182.49 420.55 182.49 419.02C182.49 417.49 181.28 416.29 179.74 416.29ZM164.3 459.49C162.81 459.49 161.55 460.69 161.55 462.22C161.55 463.75 162.76 464.95 164.3 464.95C165.84 464.95 167.05 463.75 167.05 462.22C167.05 460.69 165.84 459.49 164.3 459.49ZM164.3 473.89C162.81 473.89 161.55 475.09 161.55 476.62C161.55 478.15 162.76 479.35 164.3 479.35C165.84 479.35 167.05 478.15 167.05 476.62C167.05 475.09 165.84 473.89 164.3 473.89ZM164.3 560.3C162.81 560.3 161.55 561.5 161.55 563.03C161.55 564.56 162.76 565.76 164.3 565.76C165.84 565.76 167.05 564.56 167.05 563.03C167.05 561.5 165.84 560.3 164.3 560.3ZM164.3 488.29C162.81 488.29 161.55 489.49 161.55 491.02C161.55 492.55 162.76 493.75 164.3 493.75C165.84 493.75 167.05 492.55 167.05 491.02C167.05 489.49 165.84 488.29 164.3 488.29ZM164.3 430.69C162.81 430.69 161.55 431.89 161.55 433.42C161.55 434.95 162.76 436.15 164.3 436.15C165.84 436.15 167.05 434.95 167.05 433.42C167.05 431.89 165.84 430.69 164.3 430.69ZM164.3 445.09C162.81 445.09 161.55 446.29 161.55 447.82C161.55 449.35 162.76 450.55 164.3 450.55C165.84 450.55 167.05 449.35 167.05 447.82C167.05 446.29 165.84 445.09 164.3 445.09ZM164.3 574.7C162.81 574.7 161.55 575.9 161.55 577.43C161.55 578.96 162.76 580.16 164.3 580.16C165.84 580.16 167.05 578.96 167.05 577.43C167.05 575.9 165.84 574.7 164.3 574.7ZM164.3 502.69C162.81 502.69 161.55 503.89 161.55 505.42C161.55 506.95 162.76 508.15 164.3 508.15C165.84 508.15 167.05 506.95 167.05 505.42C167.05 503.89 165.84 502.69 164.3 502.69ZM164.3 545.89C162.81 545.89 161.55 547.09 161.55 548.62C161.55 550.15 162.76 551.35 164.3 551.35C165.84 551.35 167.05 550.15 167.05 548.62C167.05 547.09 165.84 545.89 164.3 545.89ZM164.3 517.09C162.81 517.09 161.55 518.29 161.55 519.82C161.55 521.35 162.76 522.55 164.3 522.55C165.84 522.55 167.05 521.35 167.05 519.82C167.05 518.29 165.84 517.09 164.3 517.09ZM164.3 531.49C162.81 531.49 161.55 532.69 161.55 534.22C161.55 535.75 162.76 536.95 164.3 536.95C165.84 536.95 167.05 535.75 167.05 534.22C167.05 532.69 165.84 531.49 164.3 531.49ZM148.86 459.48C147.37 459.48 146.11 460.68 146.11 462.21C146.11 463.74 147.32 464.94 148.86 464.94C150.4 464.94 151.61 463.74 151.61 462.21C151.61 460.68 150.4 459.48 148.86 459.48ZM102.6 488.28C101.11 488.28 99.85 489.48 99.85 491.01C99.85 492.54 101.06 493.74 102.6 493.74C104.14 493.74 105.35 492.54 105.35 491.01C105.35 489.48 104.14 488.28 102.6 488.28ZM102.6 502.68C101.11 502.68 99.85 503.88 99.85 505.41C99.85 506.94 101.06 508.14 102.6 508.14C104.14 508.14 105.35 506.94 105.35 505.41C105.35 503.88 104.14 502.68 102.6 502.68ZM102.6 517.08C101.11 517.08 99.85 518.28 99.85 519.81C99.85 521.34 101.06 522.54 102.6 522.54C104.14 522.54 105.35 521.34 105.35 519.81C105.35 518.28 104.14 517.08 102.6 517.08ZM102.6 473.88C101.11 473.88 99.85 475.08 99.85 476.61C99.85 478.14 101.06 479.34 102.6 479.34C104.14 479.34 105.35 478.14 105.35 476.61C105.35 475.08 104.14 473.88 102.6 473.88ZM102.6 445.08C101.11 445.08 99.85 446.28 99.85 447.81C99.85 449.34 101.06 450.54 102.6 450.54C104.14 450.54 105.35 449.34 105.35 447.81C105.35 446.28 104.14 445.08 102.6 445.08ZM102.6 430.68C101.11 430.68 99.85 431.88 99.85 433.41C99.85 434.94 101.06 436.14 102.6 436.14C104.14 436.14 105.35 434.94 105.35 433.41C105.35 431.88 104.14 430.68 102.6 430.68ZM102.6 459.48C101.11 459.48 99.85 460.68 99.85 462.21C99.85 463.74 101.06 464.94 102.6 464.94C104.14 464.94 105.35 463.74 105.35 462.21C105.35 460.68 104.14 459.48 102.6 459.48ZM102.6 589.09C101.11 589.09 99.85 590.29 99.85 591.82C99.85 593.35 101.06 594.55 102.6 594.55C104.14 594.55 105.35 593.35 105.35 591.82C105.35 590.29 104.14 589.09 102.6 589.09ZM102.6 531.49C101.11 531.49 99.85 532.69 99.85 534.22C99.85 535.75 101.06 536.95 102.6 536.95C104.14 536.95 105.35 535.75 105.35 534.22C105.35 532.69 104.14 531.49 102.6 531.49ZM102.6 574.69C101.11 574.69 99.85 575.89 99.85 577.42C99.85 578.95 101.06 580.15 102.6 580.15C104.14 580.15 105.35 578.95 105.35 577.42C105.35 575.89 104.14 574.69 102.6 574.69ZM102.6 560.29C101.11 560.29 99.85 561.49 99.85 563.02C99.85 564.55 101.06 565.75 102.6 565.75C104.14 565.75 105.35 564.55 105.35 563.02C105.35 561.49 104.14 560.29 102.6 560.29ZM102.6 545.89C101.11 545.89 99.85 547.09 99.85 548.62C99.85 550.15 101.06 551.35 102.6 551.35C104.14 551.35 105.35 550.15 105.35 548.62C105.35 547.09 104.14 545.89 102.6 545.89ZM102.6 387.48C101.11 387.48 99.85 388.68 99.85 390.21C99.85 391.74 101.06 392.94 102.6 392.94C104.14 392.94 105.35 391.74 105.35 390.21C105.35 388.68 104.14 387.48 102.6 387.48ZM87.16 545.89C85.67 545.89 84.41 547.09 84.41 548.62C84.41 550.15 85.62 551.35 87.16 551.35C88.7 551.35 89.91 550.15 89.91 548.62C89.91 547.09 88.7 545.89 87.16 545.89ZM87.16 574.69C85.67 574.69 84.41 575.89 84.41 577.42C84.41 578.95 85.62 580.15 87.16 580.15C88.7 580.15 89.91 578.95 89.91 577.42C89.91 575.89 88.7 574.69 87.16 574.69ZM87.16 560.29C85.67 560.29 84.41 561.49 84.41 563.02C84.41 564.55 85.62 565.75 87.16 565.75C88.7 565.75 89.91 564.55 89.91 563.02C89.91 561.49 88.7 560.29 87.16 560.29ZM87.16 531.49C85.67 531.49 84.41 532.69 84.41 534.22C84.41 535.75 85.62 536.95 87.16 536.95C88.7 536.95 89.91 535.75 89.91 534.22C89.91 532.69 88.7 531.49 87.16 531.49ZM87.16 517.09C85.67 517.09 84.41 518.29 84.41 519.82C84.41 521.35 85.62 522.55 87.16 522.55C88.7 522.55 89.91 521.35 89.91 519.82C89.91 518.29 88.7 517.09 87.16 517.09ZM117.99 373.08C116.5 373.08 115.24 374.28 115.24 375.81C115.24 377.34 116.45 378.54 117.99 378.54C119.53 378.54 120.74 377.34 120.74 375.81C120.74 374.28 119.53 373.08 117.99 373.08ZM102.55 416.28C101.06 416.28 99.8 417.48 99.8 419.01C99.8 420.54 101.01 421.74 102.55 421.74C104.09 421.74 105.3 420.54 105.3 419.01C105.3 417.48 104.09 416.28 102.55 416.28ZM87.11 603.54C85.62 603.54 84.36 604.74 84.36 606.27C84.36 607.8 85.57 609 87.11 609C88.65 609 89.86 607.8 89.86 606.27C89.86 604.74 88.65 603.54 87.11 603.54ZM102.55 401.88C101.06 401.88 99.8 403.08 99.8 404.61C99.8 406.14 101.01 407.34 102.55 407.34C104.09 407.34 105.3 406.14 105.3 404.61C105.3 403.08 104.09 401.88 102.55 401.88ZM87.11 589.14C85.62 589.14 84.36 590.34 84.36 591.87C84.36 593.4 85.57 594.6 87.11 594.6C88.65 594.6 89.86 593.4 89.86 591.87C89.86 590.34 88.65 589.14 87.11 589.14ZM102.55 373.08C101.06 373.08 99.8 374.28 99.8 375.81C99.8 377.34 101.01 378.54 102.55 378.54C104.09 378.54 105.3 377.34 105.3 375.81C105.3 374.28 104.09 373.08 102.55 373.08ZM133.38 373.08C131.89 373.08 130.63 374.28 130.63 375.81C130.63 377.34 131.84 378.54 133.38 378.54C134.92 378.54 136.13 377.34 136.13 375.81C136.13 374.28 134.92 373.08 133.38 373.08ZM133.38 387.48C131.89 387.48 130.63 388.68 130.63 390.21C130.63 391.74 131.84 392.94 133.38 392.94C134.92 392.94 136.13 391.74 136.13 390.21C136.13 388.68 134.92 387.48 133.38 387.48ZM133.38 473.88C131.89 473.88 130.63 475.08 130.63 476.61C130.63 478.14 131.84 479.34 133.38 479.34C134.92 479.34 136.13 478.14 136.13 476.61C136.13 475.08 134.92 473.88 133.38 473.88ZM133.38 358.67C131.89 358.67 130.63 359.87 130.63 361.4C130.63 362.93 131.84 364.13 133.38 364.13C134.92 364.13 136.13 362.93 136.13 361.4C136.13 359.87 134.92 358.67 133.38 358.67ZM117.94 574.73C116.45 574.73 115.19 575.93 115.19 577.46C115.19 578.99 116.4 580.19 117.94 580.19C119.48 580.19 120.69 578.99 120.69 577.46C120.69 575.93 119.48 574.73 117.94 574.73ZM117.94 560.33C116.45 560.33 115.19 561.53 115.19 563.06C115.19 564.59 116.4 565.79 117.94 565.79C119.48 565.79 120.69 564.59 120.69 563.06C120.69 561.53 119.48 560.33 117.94 560.33ZM117.94 589.13C116.45 589.13 115.19 590.33 115.19 591.86C115.19 593.39 116.4 594.59 117.94 594.59C119.48 594.59 120.69 593.39 120.69 591.86C120.69 590.33 119.48 589.13 117.94 589.13ZM133.38 401.87C131.89 401.87 130.63 403.07 130.63 404.6C130.63 406.13 131.84 407.33 133.38 407.33C134.92 407.33 136.13 406.13 136.13 404.6C136.13 403.07 134.92 401.87 133.38 401.87ZM133.38 459.47C131.89 459.47 130.63 460.67 130.63 462.2C130.63 463.73 131.84 464.93 133.38 464.93C134.92 464.93 136.13 463.73 136.13 462.2C136.13 460.67 134.92 459.47 133.38 459.47ZM133.38 445.07C131.89 445.07 130.63 446.27 130.63 447.8C130.63 449.33 131.84 450.53 133.38 450.53C134.92 450.53 136.13 449.33 136.13 447.8C136.13 446.27 134.92 445.07 133.38 445.07ZM133.38 430.67C131.89 430.67 130.63 431.87 130.63 433.4C130.63 434.93 131.84 436.13 133.38 436.13C134.92 436.13 136.13 434.93 136.13 433.4C136.13 431.87 134.92 430.67 133.38 430.67ZM133.38 416.27C131.89 416.27 130.63 417.47 130.63 419C130.63 420.53 131.84 421.73 133.38 421.73C134.92 421.73 136.13 420.53 136.13 419C136.13 417.47 134.92 416.27 133.38 416.27ZM117.94 531.48C116.45 531.48 115.19 532.68 115.19 534.21C115.19 535.74 116.4 536.94 117.94 536.94C119.48 536.94 120.69 535.74 120.69 534.21C120.69 532.68 119.48 531.48 117.94 531.48ZM117.94 445.08C116.45 445.08 115.19 446.28 115.19 447.81C115.19 449.34 116.4 450.54 117.94 450.54C119.48 450.54 120.69 449.34 120.69 447.81C120.69 446.28 119.48 445.08 117.94 445.08ZM117.94 430.68C116.45 430.68 115.19 431.88 115.19 433.41C115.19 434.94 116.4 436.14 117.94 436.14C119.48 436.14 120.69 434.94 120.69 433.41C120.69 431.88 119.48 430.68 117.94 430.68ZM117.94 401.88C116.45 401.88 115.19 403.08 115.19 404.61C115.19 406.14 116.4 407.34 117.94 407.34C119.48 407.34 120.69 406.14 120.69 404.61C120.69 403.08 119.48 401.88 117.94 401.88ZM117.94 416.28C116.45 416.28 115.19 417.48 115.19 419.01C115.19 420.54 116.4 421.74 117.94 421.74C119.48 421.74 120.69 420.54 120.69 419.01C120.69 417.48 119.48 416.28 117.94 416.28ZM117.94 459.48C116.45 459.48 115.19 460.68 115.19 462.21C115.19 463.74 116.4 464.94 117.94 464.94C119.48 464.94 120.69 463.74 120.69 462.21C120.69 460.68 119.48 459.48 117.94 459.48ZM117.94 545.89C116.45 545.89 115.19 547.09 115.19 548.62C115.19 550.15 116.4 551.35 117.94 551.35C119.48 551.35 120.69 550.15 120.69 548.62C120.69 547.09 119.48 545.89 117.94 545.89ZM117.94 473.88C116.45 473.88 115.19 475.08 115.19 476.61C115.19 478.14 116.4 479.34 117.94 479.34C119.48 479.34 120.69 478.14 120.69 476.61C120.69 475.08 119.48 473.88 117.94 473.88ZM117.94 517.08C116.45 517.08 115.19 518.28 115.19 519.81C115.19 521.34 116.4 522.54 117.94 522.54C119.48 522.54 120.69 521.34 120.69 519.81C120.69 518.28 119.48 517.08 117.94 517.08ZM117.94 387.47C116.45 387.47 115.19 388.67 115.19 390.2C115.19 391.73 116.4 392.93 117.94 392.93C119.48 392.93 120.69 391.73 120.69 390.2C120.69 388.67 119.48 387.47 117.94 387.47ZM117.94 488.28C116.45 488.28 115.19 489.48 115.19 491.01C115.19 492.54 116.4 493.74 117.94 493.74C119.48 493.74 120.69 492.54 120.69 491.01C120.69 489.48 119.48 488.28 117.94 488.28ZM117.94 502.68C116.45 502.68 115.19 503.88 115.19 505.41C115.19 506.94 116.4 508.14 117.94 508.14C119.48 508.14 120.69 506.94 120.69 505.41C120.69 503.88 119.48 502.68 117.94 502.68Z" fill="url(#paint12_linear_1_439)"/>
<path d="M866.3 328.91L571.1 435.6V445.93L864.58 339.85C865.14 336.38 865.7 332.67 866.31 328.88V328.93L866.3 328.91Z" fill="url(#paint13_linear_1_439)"/>
<path d="M342.72 143.36L47.52 250.05V260.38L341 154.3C341.56 150.83 342.12 147.12 342.73 143.33V143.38L342.72 143.36Z" fill="url(#paint14_linear_1_439)"/>
</g>
</g>
<defs>
<linearGradient id="paint0_linear_1_439" x1="558.64" y1="527.86" x2="212.47" y2="597.57" gradientUnits="userSpaceOnUse">
<stop stop-color="#00B7C4"/>
<stop offset="1" stop-color="#FDDD48"/>
</linearGradient>
<linearGradient id="paint1_linear_1_439" x1="793.5" y1="266.73" x2="447.33" y2="336.44" gradientUnits="userSpaceOnUse">
<stop stop-color="#00B7C4"/>
<stop offset="1" stop-color="#FDDD48"/>
</linearGradient>
<linearGradient id="paint2_linear_1_439" x1="867.65" y1="441.05" x2="677.92" y2="482.54" gradientUnits="userSpaceOnUse">
<stop stop-color="#00B7C4"/>
<stop offset="1" stop-color="#FDDD48"/>
</linearGradient>
<linearGradient id="paint3_linear_1_439" x1="327.26" y1="589.75" x2="-3.31" y2="644.87" gradientUnits="userSpaceOnUse">
<stop stop-color="#00B7C4"/>
<stop offset="1" stop-color="#FDDD48"/>
</linearGradient>
<linearGradient id="paint4_linear_1_439" x1="590.81" y1="503.65" x2="136.18" y2="93.36" gradientUnits="userSpaceOnUse">
<stop stop-color="#00B7C4"/>
<stop offset="1" stop-color="#FDDD48"/>
</linearGradient>
<linearGradient id="paint5_linear_1_439" x1="811.63" y1="54.9" x2="439.7" y2="163" gradientUnits="userSpaceOnUse">
<stop stop-color="#00B7C4"/>
<stop offset="1" stop-color="#FDDD48"/>
</linearGradient>
<linearGradient id="paint6_linear_1_439" x1="925.09" y1="207.72" x2="553.12" y2="315.81" gradientUnits="userSpaceOnUse">
<stop stop-color="#00B7C4"/>
<stop offset="1" stop-color="#FDDD48"/>
</linearGradient>
<linearGradient id="paint7_linear_1_439" x1="458.99" y1="147.23" x2="269.26" y2="188.68" gradientUnits="userSpaceOnUse">
<stop stop-color="#00B7C4"/>
<stop offset="1" stop-color="#FDDD48"/>
</linearGradient>
<linearGradient id="paint8_linear_1_439" x1="904.18" y1="97.85" x2="312.19" y2="196.54" gradientUnits="userSpaceOnUse">
<stop stop-color="#00B7C4"/>
<stop offset="1" stop-color="#FDDD48"/>
</linearGradient>
<linearGradient id="paint9_linear_1_439" x1="671.05" y1="47.29" x2="79.0601" y2="146.03" gradientUnits="userSpaceOnUse">
<stop stop-color="#00B7C4"/>
<stop offset="1" stop-color="#FDDD48"/>
</linearGradient>
<linearGradient id="paint10_linear_1_439" x1="1056.78" y1="369.7" x2="464.78" y2="468.44" gradientUnits="userSpaceOnUse">
<stop stop-color="#00B7C4"/>
<stop offset="1" stop-color="#FDDD48"/>
</linearGradient>
<linearGradient id="paint11_linear_1_439" x1="868.13" y1="509.97" x2="276.14" y2="608.71" gradientUnits="userSpaceOnUse">
<stop stop-color="#00B7C4"/>
<stop offset="1" stop-color="#FDDD48"/>
</linearGradient>
<linearGradient id="paint12_linear_1_439" x1="364.51" y1="279.4" x2="31.4199" y2="624.71" gradientUnits="userSpaceOnUse">
<stop stop-color="#00B7C4"/>
<stop offset="1" stop-color="#FDDD48"/>
</linearGradient>
<linearGradient id="paint13_linear_1_439" x1="898.31" y1="357.44" x2="567.75" y2="412.56" gradientUnits="userSpaceOnUse">
<stop stop-color="#00B7C4"/>
<stop offset="1" stop-color="#FDDD48"/>
</linearGradient>
<linearGradient id="paint14_linear_1_439" x1="374.78" y1="171.87" x2="44.17" y2="227.03" gradientUnits="userSpaceOnUse">
<stop stop-color="#00B7C4"/>
<stop offset="1" stop-color="#FDDD48"/>
</linearGradient>
<clipPath id="clip0_1_439">
<rect width="1000" height="720" fill="white"/>
</clipPath>
</defs>
</svg>
