<svg width="815" height="720" viewBox="0 0 815 720" fill="none" xmlns="http://www.w3.org/2000/svg">
<g opacity="0.7" clip-path="url(#clip0_1_400)">
<path opacity="0.15" d="M252.777 8.28568e-06C303.52 -0.0427801 349.622 19.7254 383.829 51.9879C405.885 72.783 436.091 83.0736 466.105 78.752C478.235 76.9977 490.729 76.3772 503.5 77.0405C602.591 82.1109 681.958 163.666 684.44 262.87C684.739 274.937 683.927 286.768 682.065 298.235C675.198 340.874 685.317 384.689 712.186 418.534C736.745 449.47 751.656 488.386 752.383 530.768C754.138 632.412 672.567 717.561 570.951 719.957C466.191 722.417 380.513 638.231 380.513 534.042C380.513 525.249 381.112 516.605 382.31 508.155C388.15 466.222 375.507 423.562 348.082 391.321C341.3 383.341 335.16 374.805 329.748 365.776C306.237 376.11 280.288 381.908 252.948 381.908C145.963 381.908 59.5146 293.913 62.0604 186.322C64.4778 83.309 149.749 0.0641908 252.777 8.28568e-06Z" fill="#57FFB4"/>
<path d="M131.801 529.378C134.625 528.928 136.55 526.254 136.079 523.43C135.63 520.606 132.956 518.681 130.132 519.151C127.308 519.601 125.383 522.275 125.854 525.099C126.303 527.923 128.977 529.848 131.801 529.378Z" fill="#57FFB4"/>
<path d="M369.496 145.652C373.539 144.988 376.277 141.18 375.636 137.158C374.972 133.115 371.164 130.376 367.143 131.018C363.099 131.681 360.361 135.489 361.003 139.512C361.666 143.555 365.474 146.293 369.496 145.652Z" fill="white"/>
<path d="M808.775 398.103C812.818 397.44 815.556 393.632 814.914 389.61C814.251 385.566 810.443 382.828 806.421 383.469C802.378 384.133 799.64 387.941 800.282 391.963C800.945 396.006 804.753 398.745 808.775 398.103Z" fill="white"/>
<path d="M681.947 480.839C661.898 447.205 672.91 403.685 706.542 383.635C740.174 363.585 783.691 374.597 803.74 408.231C823.789 441.866 812.777 485.386 779.145 505.436C745.513 525.486 701.996 514.474 681.947 480.839Z" fill="url(#paint0_linear_1_400)"/>
<path d="M222.078 594.459C226.592 619.533 250.573 636.199 275.646 631.663C300.718 627.149 317.383 603.166 312.848 578.092C308.334 553.018 284.353 536.352 259.28 540.888C234.208 545.402 217.543 569.385 222.078 594.459Z" fill="url(#paint1_linear_1_400)"/>
<path d="M191.465 137.607C196.279 137.244 201.113 136.966 205.991 136.944H207.21C232.903 136.944 257.954 141.715 281.678 151.107C282.513 151.428 283.347 151.728 284.181 152.027" stroke="#57FFB4" stroke-width="3" stroke-linecap="round" stroke-linejoin="round"/>
<path d="M191.465 137.607C196.279 137.244 201.113 136.966 205.991 136.944H207.21C232.903 136.944 257.954 141.715 281.678 151.107C282.513 151.428 283.347 151.728 284.181 152.027" stroke="white" stroke-width="3" stroke-linecap="round" stroke-linejoin="round"/>
<path d="M35.5332 232.469C43.9406 219.076 53.9738 206.539 65.5473 195.179C90.042 171.111 119.543 154.017 151.546 144.817" stroke="#57FFB4" stroke-width="3" stroke-linecap="round" stroke-linejoin="round"/>
<path d="M35.5332 232.469C43.9406 219.076 53.9738 206.539 65.5473 195.179C90.042 171.111 119.543 154.017 151.546 144.817" stroke="white" stroke-width="3" stroke-linecap="round" stroke-linejoin="round"/>
<path d="M36.282 447.823C14.932 414.341 3.93614 375.318 4.87743 334.584C5.51921 306.279 12.1082 278.916 23.8742 253.842" stroke="#333FBB" stroke-width="3" stroke-linecap="round" stroke-linejoin="round"/>
<path d="M658.341 479.208C658.854 480.086 659.41 480.963 660.052 481.776C676.525 503.341 684.675 530.191 683.028 557.426C679.562 614.676 631.921 661.273 574.588 663.498C573.069 663.562 571.572 663.584 570.074 663.584C525.834 663.584 485.402 637.547 467.068 597.283C464.18 590.95 458.211 587.014 451.387 587.014H450.104C427.534 587.014 405.307 583.698 384.043 577.301" stroke="#57FFB4" stroke-width="3" stroke-linecap="round" stroke-linejoin="round"/>
<path d="M600.794 88.8287C611.918 86.24 623.428 84.8921 635.13 84.8921C637.526 84.8921 639.964 84.9563 642.36 85.0633C679.284 86.7962 714.219 102.179 740.724 128.387C767.251 154.594 783.039 189.36 785.2 226.244C785.606 233.132 785.521 239.979 785.029 246.696" stroke="#57FFB4" stroke-width="3" stroke-linecap="round" stroke-linejoin="round"/>
<path d="M206.119 156.199C230.315 156.049 253.419 160.628 274.598 169.014C303.178 180.353 335.31 180.032 363.292 167.26C389.733 155.215 419.127 148.476 450.104 148.476C460.394 148.476 470.512 149.224 480.417 150.658C507.372 154.573 534.455 147.064 556.169 130.633C579.68 112.833 609.394 102.799 641.483 104.297C707.972 107.42 762.139 160.927 766.011 227.377C769.091 280.178 740.896 326.668 698.238 350.137C675.84 362.46 659.774 383.512 653.677 408.329C650.319 421.958 645.634 435.072 639.772 447.502C632.67 462.542 634.68 480.278 644.778 493.478C657.934 510.701 665.272 532.608 663.839 556.27C660.951 604.065 621.695 642.403 573.861 644.286C534.263 645.826 499.863 622.849 484.61 589.324C478.62 576.188 465.742 567.695 451.302 567.78C450.917 567.78 450.51 567.78 450.104 567.78C408.388 567.78 369.517 555.586 336.872 534.577C309.896 517.226 277.015 511.749 245.632 518.445C233.245 521.098 220.41 522.489 207.253 522.489C104.675 522.489 21.7993 438.153 24.1738 335.054C26.4201 236.577 107.67 156.798 206.162 156.22L206.119 156.199Z" fill="url(#paint2_linear_1_400)"/>
<path d="M154.632 530.25C152.962 513.33 165.323 498.258 182.242 496.587C199.162 494.916 214.232 507.279 215.903 524.199C217.574 541.12 205.212 556.191 188.293 557.862C171.374 559.533 156.303 547.171 154.632 530.25Z" stroke="#57FFB4" stroke-width="3" stroke-miterlimit="10"/>
<path d="M732.236 377.63C730.565 360.71 742.927 345.638 759.846 343.967C776.765 342.296 791.836 354.658 793.507 371.579C795.177 388.499 782.816 403.571 765.897 405.242C748.977 406.913 733.907 394.551 732.236 377.63Z" stroke="#333FBB" stroke-width="3" stroke-linecap="round" stroke-linejoin="round"/>
<path d="M391.851 161.868C391.851 193.874 417.801 219.804 449.783 219.804C481.765 219.804 507.714 193.853 507.714 161.868C507.714 129.884 481.765 103.933 449.783 103.933C417.801 103.933 391.851 129.884 391.851 161.868Z" stroke="white" stroke-width="3" stroke-linecap="round" stroke-linejoin="round"/>
</g>
<defs>
<linearGradient id="paint0_linear_1_400" x1="772.653" y1="457.013" x2="66.75" y2="161.254" gradientUnits="userSpaceOnUse">
<stop stop-color="#57FFB4"/>
<stop offset="0.26" stop-color="#4CBAB4"/>
<stop offset="0.51" stop-color="#437DB5"/>
<stop offset="0.73" stop-color="#3C51B5"/>
<stop offset="0.9" stop-color="#3836B5"/>
<stop offset="1" stop-color="#372CB6"/>
</linearGradient>
<linearGradient id="paint1_linear_1_400" x1="651.126" y1="747.071" x2="-54.7765" y2="451.312" gradientUnits="userSpaceOnUse">
<stop stop-color="#57FFB4"/>
<stop offset="0.26" stop-color="#4CBAB4"/>
<stop offset="0.51" stop-color="#437DB5"/>
<stop offset="0.73" stop-color="#3C51B5"/>
<stop offset="0.9" stop-color="#3836B5"/>
<stop offset="1" stop-color="#372CB6"/>
</linearGradient>
<linearGradient id="paint2_linear_1_400" x1="755.378" y1="535.047" x2="113.142" y2="118.734" gradientUnits="userSpaceOnUse">
<stop stop-color="#57FFB4"/>
<stop offset="0.26" stop-color="#4CBAB4"/>
<stop offset="0.51" stop-color="#437DB5"/>
<stop offset="0.73" stop-color="#3C51B5"/>
<stop offset="0.9" stop-color="#3836B5"/>
<stop offset="1" stop-color="#372CB6"/>
</linearGradient>
<clipPath id="clip0_1_400">
<rect width="815" height="720" fill="white" transform="matrix(-1 0 0 1 815 0)"/>
</clipPath>
</defs>
</svg>
